<?xml version="1.0" standalone="no"?>
<!DOCTYPE svg PUBLIC "-//W3C//DTD SVG 1.1//EN" "http://www.w3.org/Graphics/SVG/1.1/DTD/svg11.dtd" >
<svg>
<metadata>
Created by FontForge 20120731 at Tue Jun  5 05:46:31 2018
 By www
Copyright (c) 2011 by Wolfgang Homola, distributed by TypeTogether. All rights reserved.
</metadata>
<defs>
<font id="SoleilW02-Book" horiz-adv-x="550" >
  <font-face 
    font-family="SoleilW02-Book"
    font-weight="350"
    font-stretch="normal"
    units-per-em="1000"
    panose-1="2 0 5 3 0 0 0 2 0 4"
    ascent="800"
    descent="-200"
    x-height="506"
    cap-height="700"
    bbox="-210 -250 1184 982"
    underline-thickness="50"
    underline-position="-75"
    unicode-range="U+000D-FB02"
  />
<missing-glyph 
d="M236 130v69h66v-69h-66zM494 665v-665h-437v665h437zM117 58h316v548h-316v-548zM239 250v91q16 6 32 12.5t28 15.5t19.5 21.5t7.5 30.5q0 21 -14 37t-40 16q-25 0 -39.5 -15.5t-14.5 -42.5v-6h-57v4q0 49 32 80t79 31q25 0 45.5 -9t35.5 -23.5t23 -33t8 -36.5
q0 -26 -7.5 -44.5t-19.5 -31.5t-27 -22t-30 -16v-59h-61z" />
    <glyph glyph-name=".notdef" 
d="M236 130v69h66v-69h-66zM494 665v-665h-437v665h437zM117 58h316v548h-316v-548zM239 250v91q16 6 32 12.5t28 15.5t19.5 21.5t7.5 30.5q0 21 -14 37t-40 16q-25 0 -39.5 -15.5t-14.5 -42.5v-6h-57v4q0 49 32 80t79 31q25 0 45.5 -9t35.5 -23.5t23 -33t8 -36.5
q0 -26 -7.5 -44.5t-19.5 -31.5t-27 -22t-30 -16v-59h-61z" />
    <glyph glyph-name=".null" horiz-adv-x="0" 
 />
    <glyph glyph-name="uni000D" unicode="&#xd;" horiz-adv-x="250" 
 />
    <glyph glyph-name="glyph369" horiz-adv-x="0" 
 />
    <glyph glyph-name="glyph369" horiz-adv-x="0" 
 />
    <glyph glyph-name="space" unicode=" " horiz-adv-x="250" 
 />
    <glyph glyph-name="exclam" unicode="!" horiz-adv-x="319" 
d="M220 586l-10 -369h-100l-11 369v114h121v-114zM101 0v124h117v-124h-117z" />
    <glyph glyph-name="quotedbl" unicode="&#x22;" horiz-adv-x="484" 
d="M86 429l-10 271h111l-9 -271h-92zM306 429l-10 271h111l-9 -271h-92z" />
    <glyph glyph-name="numbersign" unicode="#" horiz-adv-x="690" 
d="M177 263l25 139h-84v79h97l33 184h88l-33 -184h130l33 184h88l-33 -184h116v-79h-130l-25 -139h90v-80h-103l-32 -183h-88l32 183h-130l-32 -183h-87l31 183h-110v80h124zM265 263h129l25 139h-129z" />
    <glyph glyph-name="dollar" unicode="$" 
d="M96 158q34 -34 75 -57t93 -23q26 0 51 6t44 19.5t30.5 34t11.5 49.5t-15 48.5t-39 33.5t-54.5 25t-61.5 23q-31 11 -60 25t-52 35t-37 50t-14 71q0 38 13.5 69.5t38 54t57.5 36.5t72 17v95h69v-97q45 -5 85.5 -22t80.5 -45l-63 -75q-29 26 -65 40.5t-79 14.5
q-19 0 -38 -5t-34.5 -15.5t-25.5 -27t-10 -39.5q0 -24 14.5 -40t38 -29t53.5 -23t62 -22t62.5 -27t54.5 -37t38.5 -52t14.5 -73q0 -45 -15.5 -80t-42 -61t-62 -41.5t-75.5 -21.5v-98h-68v95q-63 2 -116 28t-103 74z" />
    <glyph glyph-name="percent" unicode="%" horiz-adv-x="851" 
d="M219 706q34 0 64 -12.5t52 -34.5t35 -51.5t13 -63.5t-13 -63.5t-35 -51.5t-52 -34.5t-64 -12.5t-64 12.5t-52 34.5t-35 51.5t-13 63.5t13 63.5t35 51.5t52 34.5t64 12.5zM219 628q-35 0 -57.5 -23.5t-22.5 -60.5t22.5 -60.5t57.5 -23.5t57.5 23.5t22.5 60.5t-22.5 60.5
t-57.5 23.5zM705 670l-497 -683l-59 43l498 683zM632 318q34 0 64 -12.5t52 -34.5t35 -51.5t13 -63.5t-13 -63.5t-35 -51.5t-52 -34.5t-64 -12.5t-64 12.5t-52 34.5t-35 51.5t-13 63.5t13 63.5t35 51.5t52 34.5t64 12.5zM632 240q-35 0 -57.5 -23.5t-22.5 -60.5t22.5 -60.5
t57.5 -23.5t57.5 23.5t22.5 60.5t-22.5 60.5t-57.5 23.5z" />
    <glyph glyph-name="ampersand" unicode="&#x26;" horiz-adv-x="683" 
d="M636 -20l-123 109q-39 -53 -95.5 -77t-120.5 -24q-47 0 -90 18t-75.5 48t-51.5 69.5t-19 83.5q0 61 31.5 109.5t84.5 77.5q-29 32 -47 66.5t-18 77.5q0 39 17.5 71t46 55t64.5 35.5t73 12.5q67 0 117.5 -34.5t67.5 -97.5l-95 -27q-8 33 -33 50t-61 17q-40 0 -67.5 -24
t-27.5 -62t28 -71.5t79 -78.5l-60 -70l-19 17q-35 -17 -56.5 -48.5t-21.5 -73.5q0 -27 11.5 -50.5t31 -41t45 -27.5t54.5 -10q45 0 79.5 18t58.5 52l-79 71l61 70l271 -242z" />
    <glyph glyph-name="quotesingle" unicode="'" horiz-adv-x="264" 
d="M86 429l-10 271h111l-9 -271h-92z" />
    <glyph glyph-name="parenleft" unicode="(" horiz-adv-x="352" 
d="M317 -174q-57 34 -106.5 79.5t-86 104t-57.5 132t-21 163.5t21 162.5t57 131t85.5 103.5t106.5 81l43 -73q-41 -27 -79 -64.5t-66.5 -87t-45.5 -112.5t-17 -141q0 -79 16.5 -142t45 -113t66 -87t79.5 -64z" />
    <glyph glyph-name="parenright" unicode=")" horiz-adv-x="352" 
d="M306 305q0 -90 -21 -163.5t-57.5 -132t-86 -104t-106.5 -79.5l-41 73q42 27 79.5 64t66 87t45 113t16.5 142q0 78 -17 141t-45.5 112.5t-66.5 87t-79 64.5l43 73q57 -36 106.5 -81t85.5 -103.5t57 -131t21 -162.5z" />
    <glyph glyph-name="asterisk" unicode="*" horiz-adv-x="494" 
d="M306 519l86 -95l-78 -56l-67 114l-67 -114l-78 56l85 95l-120 27l29 91l116 -51l-13 126h96l-12 -126l115 51l29 -91z" />
    <glyph glyph-name="plus" unicode="+" 
d="M319 355h206v-88h-206v-206h-88v206h-206v88h206v206h88v-206z" />
    <glyph glyph-name="comma" unicode="," horiz-adv-x="250" 
d="M114 -132h-98l52 256h114z" />
    <glyph glyph-name="hyphen" unicode="-" horiz-adv-x="457" 
d="M96 236v91h265v-91h-265z" />
    <glyph glyph-name="period" unicode="." horiz-adv-x="250" 
d="M66 0v124h117v-124h-117z" />
    <glyph glyph-name="slash" unicode="/" horiz-adv-x="375" 
d="M84 -55l-84 32l291 786l84 -32z" />
    <glyph glyph-name="zero" unicode="0" horiz-adv-x="553" 
d="M276 676q57 0 101.5 -24t75 -68.5t46.5 -108t16 -143.5t-16 -143.5t-46.5 -108t-75 -68.5t-101.5 -24t-101.5 24t-74.5 68.5t-46 108t-16 143.5t16 143.5t46 108t74.5 68.5t101.5 24zM276 582q-62 0 -96 -61.5t-34 -188.5q0 -126 34 -188t96 -62q63 0 97 62t34 188
q0 127 -34 188.5t-97 61.5z" />
    <glyph glyph-name="one" unicode="1" horiz-adv-x="348" 
d="M151 0v539q-23 -12 -50.5 -23.5t-47.5 -20.5v98q30 15 65.5 33.5t69.5 37.5h69v-664h-106z" />
    <glyph glyph-name="two" unicode="2" horiz-adv-x="513" 
d="M485 0h-428v90q29 30 60 64t61.5 69t59 70.5t51.5 69.5q10 14 20 30.5t18.5 34t14 35.5t5.5 35q0 21 -8.5 37t-22.5 27t-32 16.5t-37 5.5q-40 0 -69 -28t-29 -73l-105 20q3 39 22 71t47.5 54.5t64 35t72.5 12.5q40 0 77 -12.5t65.5 -35.5t45.5 -56t17 -74
q0 -47 -20.5 -94.5t-49.5 -88.5q-42 -59 -89.5 -114.5t-96.5 -108.5h286v-92z" />
    <glyph glyph-name="three" unicode="3" horiz-adv-x="523" 
d="M159 390q30 1 51.5 2.5t39.5 6.5q38 11 61 35.5t23 59.5q0 38 -28.5 63.5t-75.5 25.5q-35 0 -63 -18t-39 -52l-90 37q20 57 72 91.5t122 34.5q45 0 83.5 -12.5t66.5 -35.5t44 -56t16 -74q0 -45 -22.5 -83t-60.5 -58q51 -18 83 -62.5t32 -101.5q0 -48 -18 -86.5
t-48.5 -64.5t-72 -40t-87.5 -14q-32 0 -64 7.5t-60.5 22t-52 36.5t-38.5 52l85 45q20 -36 53 -53t72 -17q24 0 46.5 6.5t39.5 19.5t27.5 33t10.5 47q0 24 -10.5 44.5t-29 34.5t-43.5 22t-54 8q-15 0 -32.5 -1t-38.5 -6v101z" />
    <glyph glyph-name="four" unicode="4" horiz-adv-x="542" 
d="M320 0v166h-295v105q31 41 68 90t75 101l76 104t72 98h108v-406h98v-92h-98v-166h-104zM320 258v262q-21 -31 -46 -67.5t-50 -72t-48 -68t-39 -54.5h183z" />
    <glyph glyph-name="five" unicode="5" horiz-adv-x="503" 
d="M439 572h-247q-2 -43 -4.5 -89t-7.5 -86q22 10 46 14t47 4q42 0 78.5 -15.5t63.5 -43t43 -64.5t16 -80q0 -48 -17 -89t-47 -71t-71 -47t-90 -17q-32 0 -64.5 8t-61 23t-51.5 36.5t-37 48.5l85 46q19 -35 51 -52t68 -17q30 0 53.5 10t40 27t25 40t8.5 49q0 52 -35 84
t-90 32q-28 0 -53 -9.5t-45 -31.5l-74 43q4 37 7 81t6 90t5.5 89.5t4.5 78.5h347v-92z" />
    <glyph glyph-name="six" unicode="6" horiz-adv-x="539" 
d="M412 612q-45 -20 -84.5 -43.5t-72 -53t-57 -66t-37.5 -82.5q56 56 141 56q44 0 80.5 -17t63 -46t41 -67.5t14.5 -82.5q0 -47 -16 -87.5t-44.5 -70.5t-68.5 -47t-87 -17q-58 0 -104 22t-77.5 59t-48.5 85t-17 101q0 80 26.5 149.5t72 126.5t106 100.5t128.5 71.5zM145 254
q0 -33 7 -64.5t23 -56t41 -39t61 -14.5q27 0 48.5 10t37 27.5t23.5 41t8 50.5q0 54 -31.5 88t-83.5 34q-42 0 -78 -20.5t-56 -56.5z" />
    <glyph glyph-name="seven" unicode="7" horiz-adv-x="458" 
d="M439 591q-31 -64 -67.5 -144t-73.5 -163t-72 -163t-62 -145l-97 43q33 79 69.5 158.5t71 152.5t64.5 135t50 105h-312v94h429v-73z" />
    <glyph glyph-name="eight" unicode="8" horiz-adv-x="562" 
d="M407 350q48 -26 75 -66t27 -100q0 -41 -16.5 -76.5t-46.5 -62t-72 -42t-93 -15.5t-92.5 15.5t-71.5 42t-46.5 62t-16.5 76.5q0 60 27 100t74 66q-38 23 -59.5 57t-21.5 87q0 38 15 71t42 58t65 39t85 14t85.5 -14t65.5 -39t42 -58t15 -71q0 -53 -22 -87t-60 -57zM281 299
q-25 0 -47 -8.5t-38 -23.5t-25.5 -35t-9.5 -43q0 -24 9.5 -44t25.5 -34.5t38 -22.5t47 -8t47 8t38.5 22.5t26 34.5t9.5 44q0 23 -9.5 43t-26 35t-38.5 23.5t-47 8.5zM281 584q-43 0 -73 -26.5t-30 -69.5q0 -20 8 -38t22 -31t33 -20.5t40 -7.5q44 0 73.5 28t29.5 69
q0 43 -29.5 69.5t-73.5 26.5z" />
    <glyph glyph-name="nine" unicode="9" horiz-adv-x="539" 
d="M127 52q44 19 84 43t72.5 53.5t56.5 66.5t38 82q-57 -55 -141 -55q-44 0 -81 16.5t-63 45.5t-40.5 68t-14.5 83q0 46 16 86.5t44.5 70.5t68.5 47t87 17q58 0 104 -22t77.5 -58.5t48.5 -85t17 -101.5q0 -80 -26.5 -149.5t-72 -126.5t-106 -100t-128.5 -71zM394 411
q0 33 -7 64.5t-23 55.5t-41 38.5t-61 14.5q-27 0 -48.5 -10t-37 -27.5t-23.5 -40.5t-8 -50q0 -55 31.5 -89t83.5 -34q41 0 77.5 20.5t56.5 57.5z" />
    <glyph glyph-name="colon" unicode=":" horiz-adv-x="250" 
d="M66 382v124h117v-124h-117zM66 0v124h117v-124h-117z" />
    <glyph glyph-name="semicolon" unicode=";" horiz-adv-x="250" 
d="M114 -132h-98l52 256h114zM66 382v124h116v-124h-116z" />
    <glyph glyph-name="less" unicode="&#x3c;" 
d="M21 353l507 202v-88l-391 -155l391 -156v-88l-507 202v83z" />
    <glyph glyph-name="equal" unicode="=" 
d="M500 439v-88h-451v88h451zM500 272v-88h-451v88h451z" />
    <glyph glyph-name="greater" unicode="&#x3e;" 
d="M529 270l-507 -202v88l391 156l-391 155v88l507 -202v-83z" />
    <glyph glyph-name="question" unicode="?" horiz-adv-x="542" 
d="M212 217v163q30 10 58 22t50.5 28.5t36 39.5t13.5 56q0 19 -7 36.5t-20 30.5t-31 20.5t-39 7.5q-46 0 -73 -28t-27 -77v-11h-102v7q0 45 16 81.5t43.5 63t64.5 41t78 14.5q44 0 80.5 -16t63 -42.5t41 -59t14.5 -65.5q0 -47 -13 -79.5t-34 -56.5t-48.5 -40.5t-56.5 -29.5
v-106h-108zM208 0v124h116v-124h-116z" />
    <glyph glyph-name="at" unicode="@" horiz-adv-x="799" 
d="M548 -100q-74 -37 -154 -37q-71 0 -133.5 27t-108.5 74t-72.5 109.5t-26.5 133.5q0 72 27 135t73.5 109.5t108.5 73.5t133 27q78 0 142.5 -24t111 -66.5t72.5 -102.5t26 -132q0 -41 -9.5 -79.5t-28.5 -67.5t-48.5 -46.5t-69.5 -17.5q-12 0 -26.5 3.5t-28 12t-26 23.5
t-20.5 39q-17 -30 -47.5 -45.5t-65.5 -15.5t-64 13t-49.5 36t-32 54t-11.5 66q0 32 10.5 62.5t30.5 54.5t49.5 39t67.5 15q26 0 52 -11t46 -30v31h78v-153q0 -36 3 -59t9 -36t14 -17.5t17 -4.5q17 0 29 11t20 29.5t12 42.5t4 49q0 56 -18.5 101.5t-53 77.5t-83.5 49.5
t-111 17.5q-54 0 -101.5 -20t-82 -55.5t-54.5 -83.5t-20 -104t20 -104t54.5 -83.5t81.5 -56t101 -20.5q32 0 62 8t59 22zM476 249q-18 25 -41.5 38.5t-44.5 13.5q-24 0 -41.5 -9t-28.5 -23t-16 -32t-5 -36q0 -19 6 -36.5t17 -31t28 -21.5t38 -8q23 0 48.5 19t39.5 54v72z
" />
    <glyph glyph-name="A" unicode="A" horiz-adv-x="662" 
d="M471 144h-287l-52 -144h-118l275 700h91l267 -700h-124zM219 238h218l-108 299h-1z" />
    <glyph glyph-name="B" unicode="B" horiz-adv-x="616" 
d="M91 700h171q50 0 99.5 -9.5t87.5 -34.5t57 -63t19 -84q0 -48 -24 -84.5t-78 -58.5q64 -20 97.5 -62t33.5 -103q0 -60 -31.5 -105t-85.5 -68q-40 -17 -88 -22.5t-96 -5.5h-162v700zM198 93h48q42 0 77.5 3t63.5 16q23 11 38 32.5t15 55.5q0 51 -35 81.5t-103 30.5h-104
v-219zM198 405h62q75 0 116.5 24t41.5 75q0 30 -10 49t-27 30q-26 17 -61 20.5t-78 3.5h-44v-202z" />
    <glyph glyph-name="C" unicode="C" horiz-adv-x="674" 
d="M171 350q0 -61 19 -110.5t53.5 -84t82.5 -53.5t107 -19q81 0 153 52l58 -79q-47 -33 -100.5 -50.5t-112.5 -17.5q-78 0 -146.5 26t-119 73t-79.5 114t-29 149q0 77 29.5 143.5t80.5 115t119.5 76t146.5 27.5q54 0 102 -15t92 -43l-51 -82q-32 20 -68 32.5t-75 12.5
q-57 0 -105 -20t-83 -55.5t-54.5 -84.5t-19.5 -107z" />
    <glyph glyph-name="D" unicode="D" horiz-adv-x="718" 
d="M91 700h192q67 0 134.5 -18.5t121.5 -60t88 -107.5t34 -161q0 -97 -34 -164.5t-88.5 -109.5t-124 -60.5t-140.5 -18.5h-183v700zM547 344q0 129 -73.5 195.5t-207.5 66.5h-68v-512h29q72 0 131 12.5t101 42t65 77t23 118.5z" />
    <glyph glyph-name="E" unicode="E" horiz-adv-x="580" 
d="M91 0v700h427v-94h-320v-198h320v-94h-320v-220h320v-94h-427z" />
    <glyph glyph-name="F" unicode="F" horiz-adv-x="497" 
d="M198 295v-295h-107v700h363v-94h-256v-217h256v-94h-256z" />
    <glyph glyph-name="G" unicode="G" horiz-adv-x="801" 
d="M441 298v94h283v-268q-52 -66 -127.5 -101t-163.5 -35q-80 0 -149 26t-119.5 74t-79 114.5t-28.5 147.5q0 77 29.5 143.5t80.5 115t119.5 76t146.5 27.5q83 0 153.5 -33.5t122.5 -93.5l-75 -64q-37 42 -89 69t-112 27q-57 0 -105 -20t-83 -55.5t-54.5 -84.5t-19.5 -107
q0 -61 19 -110.5t53.5 -84t83 -53.5t106.5 -19q52 0 100 18.5t84 53.5v143h-176z" />
    <glyph glyph-name="H" unicode="H" horiz-adv-x="749" 
d="M551 0v314h-353v-314h-107v700h107v-292h353v292h107v-700h-107z" />
    <glyph glyph-name="I" unicode="I" horiz-adv-x="289" 
d="M91 0v700h107v-700h-107z" />
    <glyph glyph-name="J" unicode="J" horiz-adv-x="342" 
d="M256 179q0 -44 -8.5 -78.5t-26.5 -58.5q-20 -27 -52.5 -40.5t-81.5 -13.5q-26 0 -55.5 6.5t-53.5 17.5l31 87q15 -8 30 -12t33 -4q45 0 62 24q10 13 12.5 34.5t2.5 51.5v507h107v-521z" />
    <glyph glyph-name="K" unicode="K" horiz-adv-x="626" 
d="M375 422l246 -422h-125l-194 336l-104 -124v-212h-107v700h107v-340l280 340h131z" />
    <glyph glyph-name="L" unicode="L" horiz-adv-x="503" 
d="M91 0v700h107v-606h300v-94h-407z" />
    <glyph glyph-name="M" unicode="M" horiz-adv-x="931" 
d="M501 0h-75l-228 572v-572h-107v700h166l207 -533l211 533h165v-700h-107v572z" />
    <glyph glyph-name="N" unicode="N" horiz-adv-x="753" 
d="M567 0l-369 502v-502h-107v700h94l370 -502v502h107v-700h-95z" />
    <glyph glyph-name="O" unicode="O" horiz-adv-x="838" 
d="M667 350q0 56 -18.5 105t-51.5 85t-78.5 56.5t-99.5 20.5t-99.5 -20.5t-78.5 -56.5t-51.5 -85t-18.5 -105t18.5 -105t51.5 -85t78.5 -56.5t99.5 -20.5t99.5 20.5t78.5 56.5t51.5 85t18.5 105zM781 350q0 -75 -27.5 -141t-76.5 -115t-115 -77.5t-143 -28.5t-143 28.5
t-115 77.5t-76.5 115t-27.5 141t27.5 141t76.5 115t115 77.5t143 28.5t143 -28.5t115 -77.5t76.5 -115t27.5 -141z" />
    <glyph glyph-name="P" unicode="P" horiz-adv-x="583" 
d="M303 700q43 0 87.5 -11.5t81 -36.5t59.5 -65t23 -98q0 -59 -23 -99.5t-59 -65.5t-81 -36.5t-88 -11.5h-105v-276h-107v700h212zM198 370h81q34 0 63.5 6t51.5 19.5t34 36t12 54.5q0 57 -39.5 88.5t-102.5 31.5h-100v-236z" />
    <glyph glyph-name="Q" unicode="Q" horiz-adv-x="838" 
d="M703 -65l-102 101q-40 -23 -85.5 -35.5t-96.5 -12.5q-77 0 -143 28.5t-115 77.5t-76.5 115t-27.5 141t27.5 141t76.5 115t115 77.5t143 28.5t143 -28.5t115 -77.5t76.5 -115t27.5 -141t-27.5 -141t-76.5 -115l93 -92zM603 167q30 36 47 82.5t17 100.5q0 56 -18.5 105
t-51.5 85t-78.5 56.5t-99.5 20.5t-99.5 -20.5t-78.5 -56.5t-51.5 -85t-18.5 -105t18.5 -105t51.5 -85t78.5 -56.5t99.5 -20.5q59 0 109 25l-96 96l67 67z" />
    <glyph glyph-name="R" unicode="R" horiz-adv-x="618" 
d="M302 700q41 0 84 -11t78.5 -35.5t58 -63t22.5 -93.5q0 -44 -14 -77.5t-37.5 -57.5t-53.5 -39.5t-61 -22.5l220 -300h-134l-206 292h-61v-292h-107v700h211zM198 386h80q66 0 109.5 25.5t43.5 82.5q0 51 -37 81.5t-97 30.5h-99v-220z" />
    <glyph glyph-name="S" unicode="S" horiz-adv-x="609" 
d="M460 560q-26 23 -65 40t-81 17q-51 0 -84 -23t-33 -67q0 -22 11.5 -37.5t30 -27.5t43.5 -21.5t52 -18.5q37 -13 75.5 -29t69.5 -40.5t51 -60t20 -86.5q0 -59 -23.5 -100t-60 -67.5t-81 -38.5t-85.5 -12q-78 0 -139 26t-118 82l75 71q47 -47 88.5 -65.5t94.5 -18.5
q25 0 49.5 6.5t43.5 20t30.5 35t11.5 51.5q0 27 -12.5 46.5t-33.5 33.5t-48.5 25t-56.5 21q-36 13 -70.5 29t-62.5 38.5t-45 54t-17 74.5q0 49 17.5 85.5t47 60.5t68 36t81.5 12q65 0 118.5 -18.5t102.5 -56.5l-65 -77v0z" />
    <glyph glyph-name="T" unicode="T" horiz-adv-x="489" 
d="M298 606v-606h-107v606h-174v94h455v-94h-174z" />
    <glyph glyph-name="U" unicode="U" horiz-adv-x="721" 
d="M634 329q0 -165 -65.5 -253t-210.5 -88q-71 0 -122.5 22.5t-84.5 65.5t-48.5 106.5t-15.5 146.5v371h107v-394q0 -113 44.5 -168t121.5 -55q78 0 122.5 55t44.5 168v394h107v-371z" />
    <glyph glyph-name="V" unicode="V" horiz-adv-x="643" 
d="M363 0h-91l-267 700h124l194 -536h1l196 536h118z" />
    <glyph glyph-name="W" unicode="W" horiz-adv-x="900" 
d="M637 191h2l140 509h116l-200 -700h-107l-137 515h-2l-147 -515h-104l-193 700h119l134 -509h2l141 509h101z" />
    <glyph glyph-name="X" unicode="X" horiz-adv-x="665" 
d="M403 355l258 -355h-137l-195 268l-190 -268h-135l257 355l-249 345h139l186 -260l185 260h134z" />
    <glyph glyph-name="Y" unicode="Y" horiz-adv-x="568" 
d="M228 0v302l-223 398h133l148 -284h2l150 284h125l-228 -403v-297h-107z" />
    <glyph glyph-name="Z" unicode="Z" horiz-adv-x="551" 
d="M186 94h346v-94h-494v57l322 549h-314v94h461v-57z" />
    <glyph glyph-name="bracketleft" unicode="[" horiz-adv-x="316" 
d="M85 -168v917h221v-86h-127v-746h127v-85h-221z" />
    <glyph glyph-name="backslash" unicode="\" horiz-adv-x="373" 
d="M291 -55l-291 787l82 31l291 -786z" />
    <glyph glyph-name="bracketright" unicode="]" horiz-adv-x="316" 
d="M10 -168v85h127v746h-127v86h221v-917h-221z" />
    <glyph glyph-name="asciicircum" unicode="^" 
d="M386 345l-111 239l-111 -239h-91l151 340h102l151 -340h-91z" />
    <glyph glyph-name="underscore" unicode="_" 
d="M0 -232v72h550v-72h-550z" />
    <glyph glyph-name="grave" unicode="`" horiz-adv-x="360" 
d="M49 732l73 57l126 -173l-62 -47z" />
    <glyph glyph-name="a" unicode="a" horiz-adv-x="553" 
d="M383 0l-3 51q-29 -34 -65 -48.5t-83 -14.5q-35 0 -67.5 9t-57.5 28.5t-40 48.5t-15 70q0 48 19.5 80t51 51.5t72 27.5t81.5 8q20 0 44 -2.5t55 -8.5v15q0 56 -27 86.5t-88 30.5q-44 0 -85.5 -14t-73.5 -31l-29 83q42 20 96 34t108 14t92.5 -14.5t63 -42t35.5 -66.5
t11 -88v-307h-95zM375 228q-26 5 -46.5 7t-39.5 2q-22 0 -46 -3.5t-44 -13.5t-33 -27t-13 -44q0 -21 7.5 -36t20.5 -24.5t30 -14t36 -4.5q37 0 68 16t60 40v102z" />
    <glyph glyph-name="b" unicode="b" horiz-adv-x="630" 
d="M183 750v-309q27 38 71 57.5t88 19.5q54 0 99.5 -21t78.5 -57t51.5 -84.5t18.5 -103.5q0 -51 -18 -98.5t-51 -84.5t-79 -59t-102 -22q-44 0 -87 18t-73 51l-2 -57h-98v750h103zM183 154q26 -36 64 -54.5t76 -18.5q41 0 71.5 15.5t50.5 40t30 55.5t10 62q0 34 -11 65
t-32 54.5t-50.5 37.5t-66.5 14q-20 0 -40.5 -5.5t-40 -17t-35.5 -28.5t-26 -39v-181z" />
    <glyph glyph-name="c" unicode="c" horiz-adv-x="484" 
d="M460 41q-30 -26 -71.5 -39.5t-89.5 -13.5q-55 0 -102 19t-82 54t-55 83.5t-20 108.5q0 55 20 103.5t55.5 84.5t83.5 56.5t104 20.5q44 0 82 -12.5t70 -35.5l-50 -81q-22 17 -48 26.5t-54 9.5q-33 0 -62 -13.5t-50 -37t-33.5 -54.5t-12.5 -67q0 -39 13 -70.5t34.5 -54
t50 -35t60.5 -12.5q26 0 55 9.5t50 26.5z" />
    <glyph glyph-name="d" unicode="d" horiz-adv-x="630" 
d="M550 0h-98l-3 67q-27 -40 -71.5 -59.5t-89.5 -19.5q-54 0 -99.5 20.5t-78.5 56.5t-51.5 84.5t-18.5 104.5q0 51 18 98.5t51 84.5t79 59t102 22q43 0 85 -17t72 -49v298h103v-750zM447 352q-26 36 -64 54.5t-76 18.5q-41 0 -71.5 -15.5t-50.5 -40t-30 -55.5t-10 -62
q0 -34 11 -65t32 -54.5t50.5 -37.5t66.5 -14q19 0 40 5.5t40.5 17t35.5 28t26 39.5v181z" />
    <glyph glyph-name="e" unicode="e" horiz-adv-x="567" 
d="M144 227q3 -31 14.5 -58.5t31 -48.5t46.5 -33t61 -12q51 0 87.5 19t59.5 61l72 -47q-39 -62 -92.5 -91t-131.5 -29q-60 0 -106.5 20.5t-79 56t-49.5 83.5t-17 104q0 57 19.5 105.5t53.5 84t80 56t99 20.5q51 0 94 -17.5t74.5 -49t49 -74.5t17.5 -94q0 -14 -1.5 -29.5
t-3.5 -26.5h-378zM420 306q-2 26 -11.5 49t-26 40t-39 27t-49.5 10q-29 0 -53 -9.5t-42 -26.5t-30 -40t-19 -50h270z" />
    <glyph glyph-name="f" unicode="f" horiz-adv-x="342" 
d="M344 654q-15 8 -30.5 11.5t-35.5 3.5t-32.5 -4t-21.5 -12q-15 -14 -19 -37t-4 -54v-56h135v-89h-135v-417h-103v417h-57v89h57v65q0 41 8 74.5t25 58.5q20 28 52.5 43t84.5 15q27 0 55 -6.5t51 -17.5z" />
    <glyph glyph-name="g" unicode="g" horiz-adv-x="625" 
d="M447 352q-26 36 -64 54.5t-76 18.5q-41 0 -71.5 -14.5t-50.5 -38t-30 -53.5t-10 -61q0 -34 11 -64t32 -52.5t50.5 -35.5t66.5 -13q19 0 40 5.5t40.5 17t35.5 28t26 39.5v169zM447 77q-27 -38 -71 -57.5t-88 -19.5q-54 0 -99.5 20t-78.5 54.5t-51.5 82t-18.5 103.5
q0 51 18 97.5t51 82.5t79 57t102 21q44 0 87 -18t73 -51l2 57h98v-479q0 -80 -28 -133q-34 -64 -95 -91t-132 -27q-59 0 -119 17t-108 51l40 87q18 -14 41 -25t47 -19.5t48.5 -13t47.5 -4.5q31 0 59 8t49.5 25t34 44.5t12.5 65.5v65z" />
    <glyph glyph-name="h" unicode="h" horiz-adv-x="609" 
d="M183 428q29 43 71.5 66.5t90.5 23.5q51 0 86 -17t58 -47q26 -36 35.5 -85t9.5 -106v-263h-103v254q0 35 -3.5 70.5t-20.5 61.5q-11 18 -31.5 28.5t-51.5 10.5q-41 0 -78.5 -25t-62.5 -65v-335h-103v750h103v-322z" />
    <glyph glyph-name="i" unicode="i" horiz-adv-x="263" 
d="M80 0v506h103v-506h-103zM80 598v107h103v-107h-103z" />
    <glyph glyph-name="j" unicode="j" horiz-adv-x="272" 
d="M88 598v107h103v-107h-103zM191 -43q0 -31 -3.5 -56.5t-14.5 -47.5q-16 -35 -49 -56t-88 -21q-57 0 -100 22l29 83q11 -6 25.5 -10t31.5 -4q23 0 36 8.5t20 22.5t8.5 33.5t1.5 41.5v533h103v-549z" />
    <glyph glyph-name="k" unicode="k" horiz-adv-x="524" 
d="M183 264l2 -1l195 243h124l-179 -208l194 -298h-124l-138 218l-74 -86v-132h-103v750h103v-486z" />
    <glyph glyph-name="l" unicode="l" horiz-adv-x="263" 
d="M183 0h-103v750h103v-750z" />
    <glyph glyph-name="m" unicode="m" horiz-adv-x="922" 
d="M744 0v254q0 35 -3 70.5t-19 61.5q-11 18 -31.5 28.5t-50.5 10.5q-35 0 -69.5 -21t-60.5 -56q2 -20 3.5 -41t1.5 -44v-263h-103v254q0 35 -3.5 72.5t-21.5 63.5q-22 35 -74 35q-18 0 -36 -7t-35 -18.5t-32 -26t-27 -30.5v-343h-103v506h98l2 -73q29 40 72 62.5t85 22.5
q43 0 79.5 -17t59.5 -52q4 -5 7 -11t5 -11q33 48 79 69.5t95 21.5t82.5 -16t55.5 -45q28 -36 37.5 -86t9.5 -108v-263h-103z" />
    <glyph glyph-name="n" unicode="n" horiz-adv-x="609" 
d="M178 506l3 -80q29 45 72 68.5t92 23.5q51 0 86 -17t58 -47q26 -36 35.5 -85t9.5 -106v-263h-103v254q0 35 -3.5 70.5t-20.5 61.5q-11 18 -31.5 28.5t-51.5 10.5q-41 0 -78.5 -25t-62.5 -65v-335h-103v506h98z" />
    <glyph glyph-name="o" unicode="o" horiz-adv-x="600" 
d="M300 518q56 0 103.5 -20.5t82.5 -56.5t54.5 -84.5t19.5 -103.5q0 -56 -19.5 -104t-54.5 -84t-82.5 -56.5t-103.5 -20.5t-104 20.5t-82.5 56.5t-54 84t-19.5 104q0 55 19.5 103.5t54 84.5t82.5 56.5t104 20.5zM455 253q0 36 -11.5 67t-32 54.5t-49 37t-62.5 13.5
t-62.5 -13.5t-49 -37t-32 -54.5t-11.5 -67q0 -35 11.5 -66.5t32 -55t49 -37t62.5 -13.5t62.5 13.5t49 37t32 55t11.5 66.5z" />
    <glyph glyph-name="p" unicode="p" horiz-adv-x="630" 
d="M178 506l3 -67q27 40 71.5 59.5t89.5 19.5q54 0 99.5 -21t78.5 -57t51.5 -84.5t18.5 -103.5q0 -51 -18 -98.5t-51 -84.5t-79 -59t-102 -22q-43 0 -85 17t-72 49v-304h-103v756h98zM183 154q26 -36 64 -54.5t76 -18.5q41 0 71.5 15.5t50.5 40t30 55.5t10 62q0 34 -11 65
t-32 54.5t-50.5 37.5t-66.5 14q-20 0 -40.5 -5.5t-40 -17t-35.5 -28.5t-26 -39v-181z" />
    <glyph glyph-name="q" unicode="q" horiz-adv-x="630" 
d="M447 -250v315q-27 -38 -71 -57.5t-88 -19.5q-54 0 -99.5 20.5t-78.5 56.5t-51.5 84.5t-18.5 104.5q0 51 18 98.5t51 84.5t79 59t102 22q44 0 87 -18t73 -51l2 57h98v-756h-103zM447 352q-26 36 -64 54.5t-76 18.5q-41 0 -71.5 -15.5t-50.5 -40t-30 -55.5t-10 -62
q0 -34 11 -65t32 -54.5t50.5 -37.5t66.5 -14q19 0 40 5.5t40.5 17t35.5 28t26 39.5v181z" />
    <glyph glyph-name="r" unicode="r" horiz-adv-x="361" 
d="M181 427q23 40 55.5 65.5t72.5 25.5q31 0 58 -7l-21 -104q-21 11 -48 11q-37 0 -65.5 -20.5t-49.5 -57.5v-340h-103v506h98z" />
    <glyph glyph-name="s" unicode="s" horiz-adv-x="458" 
d="M334 395q-17 16 -45 27.5t-55 11.5q-31 0 -50 -16.5t-19 -43.5q0 -14 8 -24.5t21 -19t29.5 -16t34.5 -14.5q25 -10 51 -22t47.5 -30t35.5 -42t14 -58q0 -42 -15.5 -72.5t-41.5 -50t-59.5 -28.5t-69.5 -9q-54 0 -101.5 20.5t-80.5 60.5l68 59q26 -27 53.5 -41t59.5 -14
q33 0 58.5 17t25.5 52q0 15 -8 26t-21.5 20t-30.5 16t-36 15q-25 10 -50 21.5t-45.5 28t-33 40t-12.5 57.5q0 39 14 67.5t37.5 47t53.5 28t63 9.5q45 0 86.5 -14.5t73.5 -43.5z" />
    <glyph glyph-name="t" unicode="t" horiz-adv-x="354" 
d="M189 417v-220v-19.5t1 -20.5q2 -36 16 -56t48 -20q17 0 31 4t26 10l30 -81q-20 -11 -47.5 -17.5t-53.5 -6.5q-55 0 -89.5 23.5t-49.5 62.5q-8 21 -11.5 46.5t-3.5 53.5v241h-66v89h66l5 119h98v-119h139v-89h-139z" />
    <glyph glyph-name="u" unicode="u" horiz-adv-x="609" 
d="M431 0l-3 80q-29 -45 -72 -68.5t-92 -23.5q-51 0 -86 17t-58 47q-26 36 -35.5 85t-9.5 106v263h103v-254q0 -35 3.5 -70.5t20.5 -61.5q11 -18 31.5 -28.5t51.5 -10.5q41 0 78.5 25t62.5 65v335h103v-506h-98z" />
    <glyph glyph-name="v" unicode="v" horiz-adv-x="492" 
d="M487 506l-200 -506h-88l-192 506h114l127 -375h2l126 375h111z" />
    <glyph glyph-name="w" unicode="w" horiz-adv-x="745" 
d="M525 133h3l97 373h106l-147 -506h-109l-102 368h-2l-104 -368h-113l-140 506h111l90 -373h2l106 373h104z" />
    <glyph glyph-name="x" unicode="x" horiz-adv-x="516" 
d="M323 259l186 -259h-132l-121 180l-122 -180h-128l190 254l-178 252h131l116 -172l116 172h126z" />
    <glyph glyph-name="y" unicode="y" horiz-adv-x="490" 
d="M119 506l124 -364h2l128 364h112l-285 -735l-91 36l80 212l-184 487h114z" />
    <glyph glyph-name="z" unicode="z" horiz-adv-x="461" 
d="M273 417h-227v89h364v-46l-217 -371h234v-89h-370v47z" />
    <glyph glyph-name="braceleft" unicode="{" horiz-adv-x="319" 
d="M308 -179q-12 -1 -19.5 -1h-15.5q-42 0 -76 15t-58 41.5t-37.5 63.5t-13.5 81v108q0 48 -19 84.5t-61 44.5l2 88q43 10 60.5 49t17.5 91v74q0 44 13.5 81t37.5 63.5t58 41.5t76 15h15.5t19.5 -1v-87q-8 1 -14 1.5t-14 0.5q-27 0 -46 -11t-30.5 -30.5t-16.5 -45t-5 -54.5
v-75q0 -50 -17 -91t-49 -66q32 -26 49 -67t17 -91v-96q0 -29 5 -55t16.5 -45.5t30.5 -30.5t46 -11q8 0 14 0.5t14 1.5v-87z" />
    <glyph glyph-name="bar" unicode="|" horiz-adv-x="319" 
d="M115 -170v1028h90v-1028h-90z" />
    <glyph glyph-name="braceright" unicode="}" horiz-adv-x="319" 
d="M10 -92q8 -1 14 -1.5t14 -0.5q27 0 46 11t30.5 30.5t16.5 45.5t5 55v96q0 50 17 91t49 67q-32 25 -49 66t-17 91v75q0 29 -5 54.5t-16.5 45t-30.5 30.5t-46 11q-8 0 -14 -0.5t-14 -1.5v87q12 1 19.5 1h15.5q42 0 76 -15t58 -41.5t37.5 -63.5t13.5 -81v-74q0 -52 17.5 -91
t60.5 -49l2 -88q-42 -8 -61 -44.5t-19 -84.5v-108q0 -44 -13.5 -81t-37.5 -63.5t-58 -41.5t-76 -15h-15.5t-19.5 1v87z" />
    <glyph glyph-name="asciitilde" unicode="~" 
d="M31 262q-1 5 -1.5 13t-0.5 16q0 60 38.5 94.5t100.5 34.5q39 0 68.5 -14t55 -30.5t48.5 -30.5t49 -14q19 0 34 12t15 32q0 11 -2 16l84 7q1 -5 1.5 -13t0.5 -16q0 -60 -38.5 -94.5t-99.5 -34.5q-40 0 -70 14t-55 30.5t-48 30.5t-49 14q-19 0 -34 -12t-15 -32v-7.5t2 -8.5
z" />
    <glyph glyph-name="uni00A0" unicode="&#xa0;" horiz-adv-x="250" 
 />
    <glyph glyph-name="exclamdown" unicode="&#xa1;" horiz-adv-x="319" 
d="M99 -79l11 368h100l10 -368v-115h-121v115zM218 506v-124h-117v124h117z" />
    <glyph glyph-name="cent" unicode="&#xa2;" 
d="M491 100q-54 -43 -133 -51v-88h-69v89q-47 7 -87 28.5t-69 55.5t-45.5 79.5t-16.5 99.5q0 49 16 93.5t45 79t69 57.5t88 31v90h69v-88q71 -6 128 -46l-50 -81q-21 17 -47.5 26.5t-54.5 9.5q-33 0 -61.5 -13.5t-50 -37t-33.5 -54.5t-12 -67q0 -39 12.5 -70.5t34.5 -54
t50 -35t60 -12.5q26 0 55 9.5t50 26.5z" />
    <glyph glyph-name="sterling" unicode="&#xa3;" 
d="M78 0v94h56v218h-56v92h56v49q0 48 15.5 89t42.5 71t65 46.5t83 16.5q41 0 81 -10t72 -29l-43 -86q-20 17 -47.5 25t-55.5 8q-30 0 -50.5 -11.5t-34 -32t-19.5 -49t-6 -62.5v-25h133v-92h-133v-218h254v-94h-413z" />
    <glyph glyph-name="currency" unicode="&#xa4;" 
d="M58 325q0 34 10 64.5t28 56.5l-54 54l58 58l54 -53q26 17 56.5 27t64.5 10q33 0 64 -10t57 -27l54 53l58 -58l-54 -54q18 -26 28 -56.5t10 -64.5t-10 -64.5t-28 -56.5l54 -53l-58 -58l-54 53q-26 -18 -57 -28t-64 -10q-34 0 -64.5 10t-56.5 28l-54 -53l-58 58l54 53
q-18 26 -28 56.5t-10 64.5zM143 325q0 -27 10.5 -51t28.5 -42t42 -28.5t51 -10.5t51 10.5t42 28.5t28.5 42t10.5 51t-10.5 51t-28.5 42t-42 28.5t-51 10.5t-51 -10.5t-42 -28.5t-28.5 -42t-10.5 -51z" />
    <glyph glyph-name="yen" unicode="&#xa5;" 
d="M52 335h143l-184 329h120l146 -267h2l140 267h119l-187 -329h142v-79h-168v-62h168v-78h-169v-116h-103v116h-169v78h168v62h-168v79z" />
    <glyph glyph-name="brokenbar" unicode="&#xa6;" horiz-adv-x="319" 
d="M115 -198v380h90v-380h-90zM115 370v380h90v-380h-90z" />
    <glyph glyph-name="section" unicode="&#xa7;" 
d="M395 588q-27 18 -60 28.5t-68 10.5q-16 0 -33 -3.5t-30.5 -12t-22 -21t-8.5 -30.5q0 -20 14 -34.5t36.5 -25.5t51.5 -20.5t59 -19.5q31 -11 61.5 -24t54.5 -32t39 -46t15 -65q0 -42 -25.5 -78.5t-68.5 -59.5q32 -18 52 -46t20 -73q0 -46 -17 -79t-46.5 -54.5t-69 -32
t-83.5 -10.5q-63 0 -120.5 20t-100.5 59l61 71q36 -33 74 -48.5t84 -15.5q22 0 42.5 5t36.5 15t25.5 25t9.5 35q0 18 -11.5 31.5t-29.5 24t-41 18t-47 14.5q-32 9 -67.5 20.5t-65 30.5t-48.5 46.5t-19 69.5q0 51 25.5 89t70.5 58q-31 20 -51 48t-20 73q0 41 16.5 71.5
t43.5 51t62.5 30.5t73.5 10q51 0 96 -13t86 -42zM325 192q29 12 51.5 36t22.5 55q0 22 -14.5 37.5t-38 27.5t-53.5 21t-62 20q-36 -12 -56.5 -36.5t-20.5 -53.5q0 -24 14.5 -40t38.5 -27.5t55 -20.5t63 -19z" />
    <glyph glyph-name="dieresis" unicode="&#xa8;" horiz-adv-x="360" 
d="M21 598v107h105v-107h-105zM234 598v107h105v-107h-105z" />
    <glyph glyph-name="copyright" unicode="&#xa9;" horiz-adv-x="799" 
d="M54 333q0 72 27 134.5t74 109.5t110 74t135 27t135 -27t110 -74t74 -109.5t27 -134.5t-27 -134.5t-74 -109.5t-110 -74t-135 -27t-135 27t-110 74t-74 109.5t-27 134.5zM134 333q0 -55 21 -104t57 -85.5t84.5 -57.5t103.5 -21t103.5 21t84.5 57.5t57 85.5t21 104t-21 104
t-57 85.5t-84.5 57.5t-103.5 21t-103.5 -21t-84.5 -57.5t-57 -85.5t-21 -104zM479 428q-16 10 -35 16t-36 6q-49 0 -80.5 -33t-31.5 -84q0 -57 31 -87.5t81 -30.5q18 0 37.5 6t37.5 20l41 -60q-26 -17 -54 -27.5t-60 -10.5q-41 0 -77 13.5t-62.5 38t-42 59.5t-15.5 79
q0 40 15.5 74.5t42 60t62.5 40t77 14.5q29 0 56 -9t51 -24z" />
    <glyph glyph-name="ordfeminine" unicode="&#xaa;" horiz-adv-x="383" 
d="M250 596q-1 35 -18 53.5t-55 18.5q-29 0 -56.5 -9t-47.5 -20l-22 61q29 14 66 24t74 10q72 0 105.5 -37.5t33.5 -106.5v-204h-71l-4 32q-19 -22 -43.5 -31t-53.5 -9q-23 0 -45 6.5t-39 19.5t-27.5 33t-10.5 46q0 32 13 53.5t34.5 34.5t48.5 18.5t55 5.5q14 0 28.5 -1.5
t34.5 -5.5v8zM250 537q-30 6 -50 6q-14 0 -29 -2.5t-27 -8.5t-20 -17t-8 -27q0 -26 17.5 -38t41.5 -12q22 0 40 9.5t35 23.5v66z" />
    <glyph glyph-name="guillemotleft" unicode="&#xab;" horiz-adv-x="544" 
d="M435 485l52 -92l-127 -122l127 -121l-52 -92l-149 155v118zM206 485l52 -92l-127 -122l127 -121l-52 -92l-149 155v118z" />
    <glyph glyph-name="logicalnot" unicode="&#xac;" 
d="M526 424v-297h-88v209h-415v88h503z" />
    <glyph glyph-name="uni00AD" unicode="&#xad;" horiz-adv-x="457" 
d="M96 236v91h265v-91h-265z" />
    <glyph glyph-name="registered" unicode="&#xae;" horiz-adv-x="575" 
d="M52 482q0 49 18.5 91.5t50.5 74.5t74.5 50.5t91.5 18.5t92 -18.5t75 -50.5t50.5 -74.5t18.5 -91.5q0 -48 -18.5 -91t-50.5 -74.5t-75 -50t-92 -18.5t-91.5 18.5t-74.5 50t-50.5 74.5t-18.5 91zM330 362l-61 88h-11v-88h-57v240h63q54 0 82 -17.5t28 -55.5
q0 -24 -12.5 -42.5t-34.5 -26.5l72 -98h-69zM258 497q26 0 41.5 5t15.5 24t-12.5 24.5t-44.5 5.5v-59zM117 482q0 -36 13.5 -67.5t36.5 -55t54 -37t67 -13.5q35 0 66 13.5t54.5 37t37 55t13.5 67.5t-13.5 67.5t-37 55.5t-54.5 37.5t-66 13.5q-36 0 -67 -13.5t-54 -37.5
t-36.5 -55.5t-13.5 -67.5z" />
    <glyph glyph-name="macron" unicode="&#xaf;" horiz-adv-x="360" 
d="M26 608v77h308v-77h-308z" />
    <glyph glyph-name="degree" unicode="&#xb0;" horiz-adv-x="462" 
d="M76 541q0 31 12 59t33 48.5t49 32.5t60 12t60 -12t49 -32.5t33 -48.5t12 -59q0 -32 -12 -59.5t-33 -48t-49 -32.5t-60 -12t-60 12t-49 32.5t-33 48t-12 59.5zM151 541q0 -34 23 -57t56 -23t56 23t23 57t-23 57t-56 23t-56 -23t-23 -57z" />
    <glyph glyph-name="plusminus" unicode="&#xb1;" 
d="M525 88v-88h-500v88h500zM319 436h206v-88h-206v-206h-88v206h-206v88h206v206h88v-206z" />
    <glyph glyph-name="uni00B2" unicode="&#xb2;" horiz-adv-x="322" 
d="M35 429q36 36 72.5 78t65.5 80q12 17 22 37t10 40q0 21 -14.5 33t-34.5 12q-23 0 -36.5 -15.5t-13.5 -41.5l-79 12q1 25 12.5 46t29.5 35t40.5 22t46.5 8q25 0 48.5 -7.5t41.5 -21.5t29 -34.5t11 -45.5q0 -30 -11 -58t-29 -53q-23 -32 -51.5 -63.5t-56.5 -58.5h165v-66
h-268v62v0z" />
    <glyph glyph-name="uni00B3" unicode="&#xb3;" horiz-adv-x="326" 
d="M102 605q28 0 50 5q20 5 32.5 18.5t12.5 31.5q0 21 -15 35t-40 14q-19 0 -34.5 -10.5t-20.5 -30.5l-65 28q13 38 45.5 58.5t75.5 20.5q27 0 51.5 -7.5t43 -21.5t29 -33.5t10.5 -44.5q0 -26 -13.5 -49t-37.5 -37q33 -11 51.5 -38.5t18.5 -59.5q0 -29 -11.5 -52t-31 -38.5
t-45.5 -24t-55 -8.5q-42 0 -80.5 20t-56.5 59l64 31q22 -43 71 -43q25 0 44 14t19 41q0 29 -22 44.5t-54 15.5q-7 0 -16 -1t-20 -3v66z" />
    <glyph glyph-name="acute" unicode="&#xb4;" horiz-adv-x="360" 
d="M174 569l-62 47l126 173l73 -57z" />
    <glyph glyph-name="uni00B5" unicode="&#xb5;" 
d="M404 0l-3 80q-29 -45 -72 -68.5t-92 -23.5q-26 0 -47 5t-38 13v-256h-104v756h103v-254q0 -35 3.5 -70.5t20.5 -61.5q11 -18 31.5 -28.5t51.5 -10.5q41 0 78.5 25t62.5 65v335h103v-506h-98z" />
    <glyph glyph-name="paragraph" unicode="&#xb6;" 
d="M399 -175v875h102v-875h-102zM243 -175v454q-39 5 -75.5 19.5t-65 40t-46 62.5t-17.5 88q0 58 23 98t59 65t80.5 36.5t87.5 11.5h56v-875h-102zM140 489q0 -27 8.5 -47.5t22.5 -34.5t33 -22t39 -10v229q-20 -2 -39 -10.5t-33 -22.5t-22.5 -34.5t-8.5 -47.5z" />
    <glyph glyph-name="periodcentered" unicode="&#xb7;" horiz-adv-x="250" 
d="M66 256v124h117v-124h-117z" />
    <glyph glyph-name="cedilla" unicode="&#xb8;" horiz-adv-x="400" 
d="M167 -64l1 -1q22 16 47 16q35 0 62 -26.5t27 -68.5q0 -20 -8.5 -39t-23.5 -33.5t-35 -23t-43 -8.5q-71 0 -106 62l59 29q7 -18 19 -25t26 -7q19 0 30.5 12.5t11.5 29.5q0 19 -12 32.5t-32 13.5q-11 0 -21.5 -6t-16.5 -17l-64 33l44 104l59 -12z" />
    <glyph glyph-name="uni00B9" unicode="&#xb9;" horiz-adv-x="219" 
d="M88 367v312q-14 -6 -30 -13t-28 -12v71q19 9 42 21t43 23h52v-402h-79z" />
    <glyph glyph-name="ordmasculine" unicode="&#xba;" horiz-adv-x="410" 
d="M205 734q39 0 71.5 -14t56 -38t36.5 -56.5t13 -69.5q0 -38 -13 -70.5t-36.5 -56.5t-56 -37.5t-71.5 -13.5q-38 0 -70.5 13.5t-56 37.5t-37 56.5t-13.5 70.5q0 37 13.5 69.5t37 56.5t56 38t70.5 14zM300 556q0 46 -26.5 77.5t-68.5 31.5t-68.5 -31.5t-26.5 -77.5
t26.5 -77.5t68.5 -31.5t68.5 31.5t26.5 77.5z" />
    <glyph glyph-name="guillemotright" unicode="&#xbb;" horiz-adv-x="544" 
d="M258 330v-118l-149 -146l-52 84l127 120l-127 122l52 84zM487 330v-118l-149 -146l-52 84l127 120l-127 122l52 84z" />
    <glyph glyph-name="onequarter" unicode="&#xbc;" horiz-adv-x="759" 
d="M640 670l-498 -683l-59 43l498 683zM397 152q35 46 76.5 101.5t77.5 106.5h77v-211h51v-62h-51v-87h-75v87h-156v65zM553 263q-9 -13 -19.5 -29t-21 -31.5t-20.5 -29.5t-17 -24h78v114zM152 338v277q-13 -6 -28 -12.5t-26 -11.5v69q17 9 38 19t40 21h52v-362h-76z" />
    <glyph glyph-name="onehalf" unicode="&#xbd;" horiz-adv-x="784" 
d="M640 670l-498 -683l-59 43l498 683zM458 57q34 32 67 69.5t59 72.5q11 14 19.5 31.5t8.5 34.5q0 18 -12 28t-31 10q-20 0 -31.5 -13.5t-11.5 -36.5l-75 13q1 23 11.5 42t27 32t38 20t44.5 7q22 0 43.5 -7t38 -20t26.5 -31.5t10 -42.5q0 -26 -11 -50.5t-28 -47.5
q-20 -28 -44 -54.5t-47 -50.5h144v-63h-246v57zM152 338v277q-13 -6 -28 -12.5t-26 -11.5v69q17 9 38 19t40 21h52v-362h-76z" />
    <glyph glyph-name="threequarters" unicode="&#xbe;" horiz-adv-x="828" 
d="M709 670l-497 -683l-59 43l497 683zM467 152q35 46 76.5 101.5t77.5 106.5h77v-211h50v-62h-50v-87h-75v87h-156v65zM623 263q-9 -13 -19.5 -29t-21 -31.5t-20.5 -29.5t-17 -24h78v114zM160 555q13 0 24 1t19 3q18 5 28.5 16t10.5 28t-12.5 29t-35.5 12q-37 0 -46 -37
l-63 28q12 35 42.5 53.5t67.5 18.5q25 0 47 -6.5t39 -19.5t27 -31t10 -40q0 -23 -12.5 -44t-32.5 -32q28 -11 45 -35t17 -55q0 -26 -10.5 -46.5t-28.5 -34.5t-41.5 -21.5t-49.5 -7.5q-39 0 -73.5 18t-52.5 55l63 29q17 -39 62 -39q21 0 37.5 11.5t16.5 36.5t-19.5 37.5
t-48.5 12.5q-5 0 -13.5 -0.5t-16.5 -2.5v63z" />
    <glyph glyph-name="questiondown" unicode="&#xbf;" horiz-adv-x="542" 
d="M330 290v-163q-30 -10 -58 -22t-50.5 -28.5t-36 -39.5t-13.5 -56q0 -19 7 -36.5t20 -30.5t31 -20.5t39 -7.5q46 0 73 28t27 77v11h102v-7q0 -45 -16 -81.5t-43.5 -63t-64.5 -41t-78 -14.5q-44 0 -81 16t-63 42.5t-40.5 59t-14.5 65.5q0 46 13 79t34 57t48.5 40t56.5 30
v106h108zM334 507v-124h-116v124h116z" />
    <glyph glyph-name="Agrave" unicode="&#xc0;" horiz-adv-x="662" 
d="M471 144h-287l-52 -144h-118l275 700h91l267 -700h-124zM219 238h218l-108 299h-1zM176 865l58 73l166 -139l-47 -61z" />
    <glyph glyph-name="Aacute" unicode="&#xc1;" horiz-adv-x="662" 
d="M471 144h-287l-52 -144h-118l275 700h91l267 -700h-124zM219 238h218l-108 299h-1zM309 738l-47 61l166 139l58 -73z" />
    <glyph glyph-name="Acircumflex" unicode="&#xc2;" horiz-adv-x="662" 
d="M471 144h-287l-52 -144h-118l275 700h91l267 -700h-124zM219 238h218l-108 299h-1zM390 921l108 -132l-61 -47l-103 109l-105 -109l-61 47l111 132h111z" />
    <glyph glyph-name="Atilde" unicode="&#xc3;" horiz-adv-x="662" 
d="M471 144h-287l-52 -144h-118l275 700h91l267 -700h-124zM219 238h218l-108 299h-1zM521 881q3 -12 3 -30q0 -45 -28.5 -71t-73.5 -26q-26 0 -46 9.5t-37.5 21t-32.5 21t-31 9.5q-13 0 -21.5 -7t-9.5 -21q0 -7 1 -10l-69 -7q-3 12 -3 30q0 45 28.5 71t73.5 26
q25 0 45.5 -9.5t38 -21t33 -21t30.5 -9.5q13 0 22 7t9 21q0 7 -1 10z" />
    <glyph glyph-name="Adieresis" unicode="&#xc4;" horiz-adv-x="662" 
d="M471 144h-287l-52 -144h-118l275 700h91l267 -700h-124zM219 238h218l-108 299h-1zM142 763v114h113v-114h-113zM413 763v114h113v-114h-113z" />
    <glyph glyph-name="Aring" unicode="&#xc5;" horiz-adv-x="662" 
d="M471 144h-287l-52 -144h-118l275 700h91l267 -700h-124zM219 238h218l-108 299h-1zM238 822q0 41 28.5 69.5t69.5 28.5t69.5 -28.5t28.5 -69.5t-28.5 -69.5t-69.5 -28.5t-69.5 28.5t-28.5 69.5zM292 822q0 -18 13 -31t31 -13t31 13t13 31t-13 31t-31 13t-31 -13t-13 -31z
" />
    <glyph glyph-name="AE" unicode="&#xc6;" horiz-adv-x="992" 
d="M502 0v145h-276l-101 -145h-135l513 700h426v-94h-319v-198h319v-94h-319v-220h319v-94h-427zM502 238v303l-212 -303h212z" />
    <glyph glyph-name="Ccedilla" unicode="&#xc7;" horiz-adv-x="674" 
d="M171 350q0 -61 19 -110.5t53.5 -84t82.5 -53.5t107 -19q81 0 153 52l58 -79q-47 -33 -100.5 -50.5t-112.5 -17.5q-14 0 -28 1t-28 3l-23 -56l2 -1q8 7 19.5 11.5t28.5 4.5q39 0 63.5 -27.5t24.5 -67.5q0 -20 -8.5 -39t-23 -33.5t-34.5 -23t-44 -8.5q-71 0 -106 62l60 29
q6 -18 18 -25t26 -7q19 0 30.5 12.5t11.5 29.5t-10.5 31.5t-30.5 14.5q-12 0 -22.5 -5t-18.5 -18l-64 34l43 93q-57 16 -105 47t-82.5 75.5t-53.5 101.5t-19 123q0 77 29.5 143.5t80.5 115t119.5 76t146.5 27.5q54 0 102 -15t92 -43l-51 -82q-32 20 -68 32.5t-75 12.5
q-57 0 -105 -20t-83 -55.5t-54.5 -84.5t-19.5 -107z" />
    <glyph glyph-name="Egrave" unicode="&#xc8;" horiz-adv-x="580" 
d="M91 0v700h427v-94h-320v-198h320v-94h-320v-220h320v-94h-427zM169 865l58 73l166 -139l-47 -61z" />
    <glyph glyph-name="Eacute" unicode="&#xc9;" horiz-adv-x="580" 
d="M91 0v700h427v-94h-320v-198h320v-94h-320v-220h320v-94h-427zM276 738l-47 61l166 139l58 -73z" />
    <glyph glyph-name="Ecircumflex" unicode="&#xca;" horiz-adv-x="580" 
d="M91 0v700h427v-94h-320v-198h320v-94h-320v-220h320v-94h-427zM366 921l108 -132l-61 -47l-103 109l-105 -109l-61 47l111 132h111z" />
    <glyph glyph-name="Edieresis" unicode="&#xcb;" horiz-adv-x="580" 
d="M140 763v114h112v-114h-112zM372 763v114h112v-114h-112zM91 0v700h427v-94h-320v-198h320v-94h-320v-220h320v-94h-427z" />
    <glyph glyph-name="Igrave" unicode="&#xcc;" horiz-adv-x="289" 
d="M91 0v700h107v-700h-107zM-13 865l58 73l166 -139l-47 -61z" />
    <glyph glyph-name="Iacute" unicode="&#xcd;" horiz-adv-x="289" 
d="M91 0v700h107v-700h-107zM129 738l-47 61l166 139l58 -73z" />
    <glyph glyph-name="Icircumflex" unicode="&#xce;" horiz-adv-x="289" 
d="M91 0v700h107v-700h-107zM201 921l108 -132l-61 -47l-103 109l-105 -109l-61 47l111 132h111z" />
    <glyph glyph-name="Idieresis" unicode="&#xcf;" horiz-adv-x="289" 
d="M-27 763v114h114v-114h-114zM202 763v114h114v-114h-114zM91 0v700h107v-700h-107z" />
    <glyph glyph-name="Eth" unicode="&#xd0;" horiz-adv-x="718" 
d="M91 319h-69v84h69v297h192q67 0 134.5 -18.5t121.5 -60t88 -107.5t34 -161q0 -97 -34 -164.5t-88.5 -109.5t-124 -60.5t-140.5 -18.5h-183v319zM547 344q0 129 -73.5 195.5t-207.5 66.5h-68v-203h119v-84h-119v-225h29q72 0 131 12.5t101 42t65 77t23 118.5z" />
    <glyph glyph-name="Ntilde" unicode="&#xd1;" horiz-adv-x="753" 
d="M567 0l-369 502v-502h-107v700h94l370 -502v502h107v-700h-95zM558 881q3 -12 3 -30q0 -45 -28.5 -71t-73.5 -26q-26 0 -46 9.5t-37.5 21t-32.5 21t-31 9.5q-13 0 -21.5 -7t-9.5 -21q0 -7 1 -10l-69 -7q-3 12 -3 30q0 45 28.5 71t73.5 26q25 0 45.5 -9.5t38 -21t33 -21
t30.5 -9.5q13 0 22 7t9 21q0 7 -1 10z" />
    <glyph glyph-name="Ograve" unicode="&#xd2;" horiz-adv-x="838" 
d="M667 350q0 56 -18.5 105t-51.5 85t-78.5 56.5t-99.5 20.5t-99.5 -20.5t-78.5 -56.5t-51.5 -85t-18.5 -105t18.5 -105t51.5 -85t78.5 -56.5t99.5 -20.5t99.5 20.5t78.5 56.5t51.5 85t18.5 105zM781 350q0 -75 -27.5 -141t-76.5 -115t-115 -77.5t-143 -28.5t-143 28.5
t-115 77.5t-76.5 115t-27.5 141t27.5 141t76.5 115t115 77.5t143 28.5t143 -28.5t115 -77.5t76.5 -115t27.5 -141zM262 865l58 73l166 -139l-47 -61z" />
    <glyph glyph-name="Oacute" unicode="&#xd3;" horiz-adv-x="838" 
d="M667 350q0 56 -18.5 105t-51.5 85t-78.5 56.5t-99.5 20.5t-99.5 -20.5t-78.5 -56.5t-51.5 -85t-18.5 -105t18.5 -105t51.5 -85t78.5 -56.5t99.5 -20.5t99.5 20.5t78.5 56.5t51.5 85t18.5 105zM781 350q0 -75 -27.5 -141t-76.5 -115t-115 -77.5t-143 -28.5t-143 28.5
t-115 77.5t-76.5 115t-27.5 141t27.5 141t76.5 115t115 77.5t143 28.5t143 -28.5t115 -77.5t76.5 -115t27.5 -141zM403 738l-47 61l166 139l58 -73z" />
    <glyph glyph-name="Ocircumflex" unicode="&#xd4;" horiz-adv-x="838" 
d="M667 350q0 56 -18.5 105t-51.5 85t-78.5 56.5t-99.5 20.5t-99.5 -20.5t-78.5 -56.5t-51.5 -85t-18.5 -105t18.5 -105t51.5 -85t78.5 -56.5t99.5 -20.5t99.5 20.5t78.5 56.5t51.5 85t18.5 105zM781 350q0 -75 -27.5 -141t-76.5 -115t-115 -77.5t-143 -28.5t-143 28.5
t-115 77.5t-76.5 115t-27.5 141t27.5 141t76.5 115t115 77.5t143 28.5t143 -28.5t115 -77.5t76.5 -115t27.5 -141zM475 921l108 -132l-61 -47l-103 109l-105 -109l-61 47l111 132h111z" />
    <glyph glyph-name="Otilde" unicode="&#xd5;" horiz-adv-x="838" 
d="M667 350q0 56 -18.5 105t-51.5 85t-78.5 56.5t-99.5 20.5t-99.5 -20.5t-78.5 -56.5t-51.5 -85t-18.5 -105t18.5 -105t51.5 -85t78.5 -56.5t99.5 -20.5t99.5 20.5t78.5 56.5t51.5 85t18.5 105zM781 350q0 -75 -27.5 -141t-76.5 -115t-115 -77.5t-143 -28.5t-143 28.5
t-115 77.5t-76.5 115t-27.5 141t27.5 141t76.5 115t115 77.5t143 28.5t143 -28.5t115 -77.5t76.5 -115t27.5 -141zM612 881q3 -12 3 -30q0 -45 -28.5 -71t-73.5 -26q-26 0 -46 9.5t-37.5 21t-32.5 21t-31 9.5q-13 0 -21.5 -7t-9.5 -21q0 -7 1 -10l-69 -7q-3 12 -3 30
q0 45 28.5 71t73.5 26q25 0 45.5 -9.5t38 -21t33 -21t30.5 -9.5q13 0 22 7t9 21q0 7 -1 10z" />
    <glyph glyph-name="Odieresis" unicode="&#xd6;" horiz-adv-x="838" 
d="M667 350q0 56 -18.5 105t-51.5 85t-78.5 56.5t-99.5 20.5t-99.5 -20.5t-78.5 -56.5t-51.5 -85t-18.5 -105t18.5 -105t51.5 -85t78.5 -56.5t99.5 -20.5t99.5 20.5t78.5 56.5t51.5 85t18.5 105zM781 350q0 -75 -27.5 -141t-76.5 -115t-115 -77.5t-143 -28.5t-143 28.5
t-115 77.5t-76.5 115t-27.5 141t27.5 141t76.5 115t115 77.5t143 28.5t143 -28.5t115 -77.5t76.5 -115t27.5 -141zM227 763v114h113v-114h-113zM498 763v114h113v-114h-113z" />
    <glyph glyph-name="multiply" unicode="&#xd7;" 
d="M275 373l146 146l62 -62l-146 -146l146 -146l-62 -62l-146 146l-146 -146l-62 62l146 146l-146 146l62 62z" />
    <glyph glyph-name="Oslash" unicode="&#xd8;" horiz-adv-x="838" 
d="M654 627q59 -51 93 -122t34 -155q0 -75 -27.5 -141t-76.5 -115t-115 -77.5t-143 -28.5q-47 0 -89 10.5t-80 30.5l-33 -49l-74 46l35 52q-57 50 -89 120t-32 152q0 75 27.5 141t76.5 115t115 77.5t143 28.5q45 0 85.5 -10t76.5 -28l29 43l73 -47zM667 350q0 57 -19 106
t-52 85l-291 -430q51 -28 114 -28q54 0 99.5 20.5t78.5 56.5t51.5 85t18.5 105zM171 350q0 -55 17 -102.5t49 -82.5l289 427q-50 25 -107 25q-54 0 -99.5 -20.5t-78.5 -56.5t-51.5 -85t-18.5 -105z" />
    <glyph glyph-name="Ugrave" unicode="&#xd9;" horiz-adv-x="721" 
d="M634 329q0 -165 -65.5 -253t-210.5 -88q-71 0 -122.5 22.5t-84.5 65.5t-48.5 106.5t-15.5 146.5v371h107v-394q0 -113 44.5 -168t121.5 -55q78 0 122.5 55t44.5 168v394h107v-371zM203 865l58 73l166 -139l-47 -61z" />
    <glyph glyph-name="Uacute" unicode="&#xda;" horiz-adv-x="721" 
d="M634 329q0 -165 -65.5 -253t-210.5 -88q-71 0 -122.5 22.5t-84.5 65.5t-48.5 106.5t-15.5 146.5v371h107v-394q0 -113 44.5 -168t121.5 -55q78 0 122.5 55t44.5 168v394h107v-371zM341 738l-47 61l166 139l58 -73z" />
    <glyph glyph-name="Ucircumflex" unicode="&#xdb;" horiz-adv-x="721" 
d="M634 329q0 -165 -65.5 -253t-210.5 -88q-71 0 -122.5 22.5t-84.5 65.5t-48.5 106.5t-15.5 146.5v371h107v-394q0 -113 44.5 -168t121.5 -55q78 0 122.5 55t44.5 168v394h107v-371zM424 921l108 -132l-61 -47l-103 109l-105 -109l-61 47l111 132h111z" />
    <glyph glyph-name="Udieresis" unicode="&#xdc;" horiz-adv-x="721" 
d="M634 329q0 -165 -65.5 -253t-210.5 -88q-71 0 -122.5 22.5t-84.5 65.5t-48.5 106.5t-15.5 146.5v371h107v-394q0 -113 44.5 -168t121.5 -55q78 0 122.5 55t44.5 168v394h107v-371zM168 763v114h113v-114h-113zM439 763v114h113v-114h-113z" />
    <glyph glyph-name="Yacute" unicode="&#xdd;" horiz-adv-x="568" 
d="M228 0v302l-223 398h133l148 -284h2l150 284h125l-228 -403v-297h-107zM259 738l-47 61l166 139l58 -73z" />
    <glyph glyph-name="Thorn" unicode="&#xde;" horiz-adv-x="599" 
d="M198 700v-134h105q43 0 87.5 -11.5t81 -36.5t59.5 -65t23 -98q0 -59 -23 -99.5t-59 -65.5t-81 -36.5t-88 -11.5h-105v-142h-107v700h107zM440 352q0 57 -39.5 88.5t-102.5 31.5h-100v-236h81q34 0 63.5 6t51.5 19.5t34 36t12 54.5z" />
    <glyph glyph-name="germandbls" unicode="&#xdf;" horiz-adv-x="629" 
d="M77 0v539q0 52 17.5 93t48.5 70t72 44.5t88 15.5q46 0 86.5 -14t70.5 -40.5t47 -64t17 -84.5q0 -43 -21 -79t-53 -58q63 -21 99.5 -72t36.5 -130q0 -53 -19 -96t-51.5 -73t-76.5 -46.5t-93 -16.5q-27 0 -53 5.5t-51 19.5l35 86q32 -19 70 -19q70 0 102.5 39t32.5 101
q0 38 -12.5 65.5t-34.5 45.5t-51.5 27t-63.5 9h-20.5t-24.5 -2v81h22q22 0 44 7.5t40 21.5t29 34.5t11 46.5q0 51 -31.5 82.5t-84.5 31.5q-64 0 -95 -40.5t-31 -109.5v-520h-102z" />
    <glyph glyph-name="agrave" unicode="&#xe0;" horiz-adv-x="553" 
d="M383 0l-3 51q-29 -34 -65 -48.5t-83 -14.5q-35 0 -67.5 9t-57.5 28.5t-40 48.5t-15 70q0 48 19.5 80t51 51.5t72 27.5t81.5 8q20 0 44 -2.5t55 -8.5v15q0 56 -27 86.5t-88 30.5q-44 0 -85.5 -14t-73.5 -31l-29 83q42 20 96 34t108 14t92.5 -14.5t63 -42t35.5 -66.5
t11 -88v-307h-95zM375 228q-26 5 -46.5 7t-39.5 2q-22 0 -46 -3.5t-44 -13.5t-33 -27t-13 -44q0 -21 7.5 -36t20.5 -24.5t30 -14t36 -4.5q37 0 68 16t60 40v102zM133 732l73 57l126 -173l-62 -47z" />
    <glyph glyph-name="aacute" unicode="&#xe1;" horiz-adv-x="553" 
d="M383 0l-3 51q-29 -34 -65 -48.5t-83 -14.5q-35 0 -67.5 9t-57.5 28.5t-40 48.5t-15 70q0 48 19.5 80t51 51.5t72 27.5t81.5 8q20 0 44 -2.5t55 -8.5v15q0 56 -27 86.5t-88 30.5q-44 0 -85.5 -14t-73.5 -31l-29 83q42 20 96 34t108 14t92.5 -14.5t63 -42t35.5 -66.5
t11 -88v-307h-95zM375 228q-26 5 -46.5 7t-39.5 2q-22 0 -46 -3.5t-44 -13.5t-33 -27t-13 -44q0 -21 7.5 -36t20.5 -24.5t30 -14t36 -4.5q37 0 68 16t60 40v102zM274 569l-62 47l126 173l73 -57z" />
    <glyph glyph-name="acircumflex" unicode="&#xe2;" horiz-adv-x="553" 
d="M383 0l-3 51q-29 -34 -65 -48.5t-83 -14.5q-35 0 -67.5 9t-57.5 28.5t-40 48.5t-15 70q0 48 19.5 80t51 51.5t72 27.5t81.5 8q20 0 44 -2.5t55 -8.5v15q0 56 -27 86.5t-88 30.5q-44 0 -85.5 -14t-73.5 -31l-29 83q42 20 96 34t108 14t92.5 -14.5t63 -42t35.5 -66.5
t11 -88v-307h-95zM375 228q-26 5 -46.5 7t-39.5 2q-22 0 -46 -3.5t-44 -13.5t-33 -27t-13 -44q0 -21 7.5 -36t20.5 -24.5t30 -14t36 -4.5q37 0 68 16t60 40v102zM314 778l103 -168l-60 -39l-96 135l-95 -135l-61 39l105 168h104z" />
    <glyph glyph-name="atilde" unicode="&#xe3;" horiz-adv-x="553" 
d="M383 0l-3 51q-29 -34 -65 -48.5t-83 -14.5q-35 0 -67.5 9t-57.5 28.5t-40 48.5t-15 70q0 48 19.5 80t51 51.5t72 27.5t81.5 8q20 0 44 -2.5t55 -8.5v15q0 56 -27 86.5t-88 30.5q-44 0 -85.5 -14t-73.5 -31l-29 83q42 20 96 34t108 14t92.5 -14.5t63 -42t35.5 -66.5
t11 -88v-307h-95zM375 228q-26 5 -46.5 7t-39.5 2q-22 0 -46 -3.5t-44 -13.5t-33 -27t-13 -44q0 -21 7.5 -36t20.5 -24.5t30 -14t36 -4.5q37 0 68 16t60 40v102zM97 598q-2 5 -3 11.5t-1 14.5q0 45 29 71t74 26q26 0 46.5 -9.5t38 -21t32.5 -21t30 -9.5q13 0 21.5 7.5
t9.5 21.5v4.5t-1 4.5l69 7q2 -5 3 -11.5t1 -14.5q0 -45 -29 -71t-74 -26q-26 0 -46.5 9.5t-38 21t-32.5 21t-30 9.5q-13 0 -21.5 -7.5t-9.5 -21.5v-4.5t1 -4.5z" />
    <glyph glyph-name="adieresis" unicode="&#xe4;" horiz-adv-x="553" 
d="M383 0l-3 51q-29 -34 -65 -48.5t-83 -14.5q-35 0 -67.5 9t-57.5 28.5t-40 48.5t-15 70q0 48 19.5 80t51 51.5t72 27.5t81.5 8q20 0 44 -2.5t55 -8.5v15q0 56 -27 86.5t-88 30.5q-44 0 -85.5 -14t-73.5 -31l-29 83q42 20 96 34t108 14t92.5 -14.5t63 -42t35.5 -66.5
t11 -88v-307h-95zM375 228q-26 5 -46.5 7t-39.5 2q-22 0 -46 -3.5t-44 -13.5t-33 -27t-13 -44q0 -21 7.5 -36t20.5 -24.5t30 -14t36 -4.5q37 0 68 16t60 40v102zM109 598v107h105v-107h-105zM322 598v107h105v-107h-105z" />
    <glyph glyph-name="aring" unicode="&#xe5;" horiz-adv-x="553" 
d="M383 0l-3 51q-29 -34 -65 -48.5t-83 -14.5q-35 0 -67.5 9t-57.5 28.5t-40 48.5t-15 70q0 48 19.5 80t51 51.5t72 27.5t81.5 8q20 0 44 -2.5t55 -8.5v15q0 56 -27 86.5t-88 30.5q-44 0 -85.5 -14t-73.5 -31l-29 83q42 20 96 34t108 14t92.5 -14.5t63 -42t35.5 -66.5
t11 -88v-307h-95zM375 228q-26 5 -46.5 7t-39.5 2q-22 0 -46 -3.5t-44 -13.5t-33 -27t-13 -44q0 -21 7.5 -36t20.5 -24.5t30 -14t36 -4.5q37 0 68 16t60 40v102zM174 666q0 41 28.5 69.5t69.5 28.5t69.5 -28.5t28.5 -69.5t-28.5 -69.5t-69.5 -28.5t-69.5 28.5t-28.5 69.5z
M228 666q0 -18 13 -31t31 -13t31 13t13 31t-13 31t-31 13t-31 -13t-13 -31z" />
    <glyph glyph-name="ae" unicode="&#xe6;" horiz-adv-x="898" 
d="M390 142q-8 20 -12.5 41.5t-6.5 44.5q-24 5 -44 7t-38 2q-22 0 -46 -3.5t-44 -13.5t-33 -27t-13 -44q0 -21 7.5 -36t20.5 -24.5t30 -14t36 -4.5q42 0 78 20t65 52zM848 108q-40 -62 -93 -91t-131 -29q-63 0 -112.5 22.5t-81.5 61.5q-37 -41 -85 -62.5t-113 -21.5
q-35 0 -67.5 9t-57.5 28.5t-40 48.5t-15 70q0 48 19.5 80t51 51.5t72 27.5t81.5 8q20 0 44 -2.5t55 -8.5v15q0 56 -27 86.5t-88 30.5q-44 0 -85.5 -14t-73.5 -31l-29 83q42 20 96 34t108 14q124 0 170 -80q33 38 78 59t100 21q51 0 93.5 -17.5t74 -49t49 -74.5t17.5 -94
q0 -14 -1.5 -29.5t-3.5 -26.5h-378q3 -31 14.5 -58.5t31 -48.5t47 -33t61.5 -12q50 0 86.5 19t59.5 61zM625 432q-29 0 -53 -9.5t-42 -26.5t-30 -40t-19 -50h270q-2 26 -11.5 49t-26 40t-39 27t-49.5 10z" />
    <glyph glyph-name="ccedilla" unicode="&#xe7;" horiz-adv-x="484" 
d="M460 41q-30 -26 -71.5 -39.5t-89.5 -13.5h-9t-9 1l-20 -53l1 -1q22 16 48 16q17 0 33 -7t28 -20t19.5 -30t7.5 -38q0 -20 -8.5 -39t-23 -33.5t-34.5 -23t-44 -8.5q-71 0 -106 62l60 29q6 -18 18 -25t26 -7q19 0 30.5 12.5t11.5 29.5q0 19 -12 32.5t-31 13.5
q-12 0 -22.5 -6t-16.5 -17l-64 33l38 90q-40 11 -73 34t-57 56t-37 74.5t-13 89.5q0 55 20 103.5t55.5 84.5t83.5 56.5t104 20.5q44 0 82 -12.5t70 -35.5l-50 -81q-22 17 -48 26.5t-54 9.5q-33 0 -62 -13.5t-50 -37t-33.5 -54.5t-12.5 -67q0 -39 13 -70.5t34.5 -54t50 -35
t60.5 -12.5q26 0 55 9.5t50 26.5z" />
    <glyph glyph-name="egrave" unicode="&#xe8;" horiz-adv-x="567" 
d="M144 227q3 -31 14.5 -58.5t31 -48.5t46.5 -33t61 -12q51 0 87.5 19t59.5 61l72 -47q-39 -62 -92.5 -91t-131.5 -29q-60 0 -106.5 20.5t-79 56t-49.5 83.5t-17 104q0 57 19.5 105.5t53.5 84t80 56t99 20.5q51 0 94 -17.5t74.5 -49t49 -74.5t17.5 -94q0 -14 -1.5 -29.5
t-3.5 -26.5h-378zM420 306q-2 26 -11.5 49t-26 40t-39 27t-49.5 10q-29 0 -53 -9.5t-42 -26.5t-30 -40t-19 -50h270zM148 732l73 57l126 -173l-62 -47z" />
    <glyph glyph-name="eacute" unicode="&#xe9;" horiz-adv-x="567" 
d="M144 227q3 -31 14.5 -58.5t31 -48.5t46.5 -33t61 -12q51 0 87.5 19t59.5 61l72 -47q-39 -62 -92.5 -91t-131.5 -29q-60 0 -106.5 20.5t-79 56t-49.5 83.5t-17 104q0 57 19.5 105.5t53.5 84t80 56t99 20.5q51 0 94 -17.5t74.5 -49t49 -74.5t17.5 -94q0 -14 -1.5 -29.5
t-3.5 -26.5h-378zM420 306q-2 26 -11.5 49t-26 40t-39 27t-49.5 10q-29 0 -53 -9.5t-42 -26.5t-30 -40t-19 -50h270zM305 569l-62 47l126 173l73 -57z" />
    <glyph glyph-name="ecircumflex" unicode="&#xea;" horiz-adv-x="567" 
d="M144 227q3 -31 14.5 -58.5t31 -48.5t46.5 -33t61 -12q51 0 87.5 19t59.5 61l72 -47q-39 -62 -92.5 -91t-131.5 -29q-60 0 -106.5 20.5t-79 56t-49.5 83.5t-17 104q0 57 19.5 105.5t53.5 84t80 56t99 20.5q51 0 94 -17.5t74.5 -49t49 -74.5t17.5 -94q0 -14 -1.5 -29.5
t-3.5 -26.5h-378zM420 306q-2 26 -11.5 49t-26 40t-39 27t-49.5 10q-29 0 -53 -9.5t-42 -26.5t-30 -40t-19 -50h270zM345 778l103 -168l-60 -39l-96 135l-95 -135l-61 39l105 168h104z" />
    <glyph glyph-name="edieresis" unicode="&#xeb;" horiz-adv-x="567" 
d="M144 227q3 -31 14.5 -58.5t31 -48.5t46.5 -33t61 -12q51 0 87.5 19t59.5 61l72 -47q-39 -62 -92.5 -91t-131.5 -29q-60 0 -106.5 20.5t-79 56t-49.5 83.5t-17 104q0 57 19.5 105.5t53.5 84t80 56t99 20.5q51 0 94 -17.5t74.5 -49t49 -74.5t17.5 -94q0 -14 -1.5 -29.5
t-3.5 -26.5h-378zM420 306q-2 26 -11.5 49t-26 40t-39 27t-49.5 10q-29 0 -53 -9.5t-42 -26.5t-30 -40t-19 -50h270zM134 598v107h105v-107h-105zM347 598v107h105v-107h-105z" />
    <glyph glyph-name="igrave" unicode="&#xec;" horiz-adv-x="263" 
d="M80 0v506h103v-506h-103zM-16 732l73 57l126 -173l-62 -47z" />
    <glyph glyph-name="iacute" unicode="&#xed;" horiz-adv-x="263" 
d="M80 0v506h103v-506h-103zM141 569l-62 47l126 173l73 -57z" />
    <glyph glyph-name="icircumflex" unicode="&#xee;" horiz-adv-x="263" 
d="M80 0v506h103v-506h-103zM184 778l103 -168l-60 -39l-96 135l-95 -135l-61 39l105 168h104z" />
    <glyph glyph-name="idieresis" unicode="&#xef;" horiz-adv-x="263" 
d="M-23 598v107h105v-107h-105zM183 598v107h105v-107h-105zM80 0v506h103v-506h-103z" />
    <glyph glyph-name="eth" unicode="&#xf0;" horiz-adv-x="581" 
d="M107 541l54 94q-23 13 -47 23.5t-48 20.5l38 87q27 -12 52.5 -24t50.5 -25l52 92l71 -40l-52 -91q127 -80 195 -186.5t68 -252.5q0 -51 -17.5 -96.5t-51 -80t-81.5 -54.5t-109 -20q-55 0 -100 20.5t-76.5 55t-48.5 79t-17 93.5q0 48 17.5 90.5t48 74t71.5 50t88 18.5
q39 0 66 -8t56 -24q-29 48 -68.5 87t-87.5 71l-55 -95zM297 380q-32 0 -60 -9t-49 -27.5t-33 -45.5t-12 -63q0 -32 10.5 -60.5t30 -50.5t46.5 -34.5t60 -12.5q40 0 68 14t46 38t26 55t8 65q0 26 -4.5 50.5t-10.5 47.5q-27 16 -58 24.5t-68 8.5z" />
    <glyph glyph-name="ntilde" unicode="&#xf1;" horiz-adv-x="609" 
d="M178 506l3 -80q29 45 72 68.5t92 23.5q51 0 86 -17t58 -47q26 -36 35.5 -85t9.5 -106v-263h-103v254q0 35 -3.5 70.5t-20.5 61.5q-11 18 -31.5 28.5t-51.5 10.5q-41 0 -78.5 -25t-62.5 -65v-335h-103v506h98zM153 598q-2 5 -3 11.5t-1 14.5q0 45 29 71t74 26
q26 0 46.5 -9.5t38 -21t32.5 -21t30 -9.5q13 0 21.5 7.5t9.5 21.5v4.5t-1 4.5l69 7q2 -5 3 -11.5t1 -14.5q0 -45 -29 -71t-74 -26q-26 0 -46.5 9.5t-38 21t-32.5 21t-30 9.5q-13 0 -21.5 -7.5t-9.5 -21.5v-4.5t1 -4.5z" />
    <glyph glyph-name="ograve" unicode="&#xf2;" horiz-adv-x="600" 
d="M300 518q56 0 103.5 -20.5t82.5 -56.5t54.5 -84.5t19.5 -103.5q0 -56 -19.5 -104t-54.5 -84t-82.5 -56.5t-103.5 -20.5t-104 20.5t-82.5 56.5t-54 84t-19.5 104q0 55 19.5 103.5t54 84.5t82.5 56.5t104 20.5zM455 253q0 36 -11.5 67t-32 54.5t-49 37t-62.5 13.5
t-62.5 -13.5t-49 -37t-32 -54.5t-11.5 -67q0 -35 11.5 -66.5t32 -55t49 -37t62.5 -13.5t62.5 13.5t49 37t32 55t11.5 66.5zM144 732l73 57l126 -173l-62 -47z" />
    <glyph glyph-name="oacute" unicode="&#xf3;" horiz-adv-x="600" 
d="M300 518q56 0 103.5 -20.5t82.5 -56.5t54.5 -84.5t19.5 -103.5q0 -56 -19.5 -104t-54.5 -84t-82.5 -56.5t-103.5 -20.5t-104 20.5t-82.5 56.5t-54 84t-19.5 104q0 55 19.5 103.5t54 84.5t82.5 56.5t104 20.5zM455 253q0 36 -11.5 67t-32 54.5t-49 37t-62.5 13.5
t-62.5 -13.5t-49 -37t-32 -54.5t-11.5 -67q0 -35 11.5 -66.5t32 -55t49 -37t62.5 -13.5t62.5 13.5t49 37t32 55t11.5 66.5zM314 569l-62 47l126 173l73 -57z" />
    <glyph glyph-name="ocircumflex" unicode="&#xf4;" horiz-adv-x="600" 
d="M300 518q56 0 103.5 -20.5t82.5 -56.5t54.5 -84.5t19.5 -103.5q0 -56 -19.5 -104t-54.5 -84t-82.5 -56.5t-103.5 -20.5t-104 20.5t-82.5 56.5t-54 84t-19.5 104q0 55 19.5 103.5t54 84.5t82.5 56.5t104 20.5zM455 253q0 36 -11.5 67t-32 54.5t-49 37t-62.5 13.5
t-62.5 -13.5t-49 -37t-32 -54.5t-11.5 -67q0 -35 11.5 -66.5t32 -55t49 -37t62.5 -13.5t62.5 13.5t49 37t32 55t11.5 66.5zM352 778l103 -168l-60 -39l-96 135l-95 -135l-61 39l105 168h104z" />
    <glyph glyph-name="otilde" unicode="&#xf5;" horiz-adv-x="600" 
d="M300 518q56 0 103.5 -20.5t82.5 -56.5t54.5 -84.5t19.5 -103.5q0 -56 -19.5 -104t-54.5 -84t-82.5 -56.5t-103.5 -20.5t-104 20.5t-82.5 56.5t-54 84t-19.5 104q0 55 19.5 103.5t54 84.5t82.5 56.5t104 20.5zM455 253q0 36 -11.5 67t-32 54.5t-49 37t-62.5 13.5
t-62.5 -13.5t-49 -37t-32 -54.5t-11.5 -67q0 -35 11.5 -66.5t32 -55t49 -37t62.5 -13.5t62.5 13.5t49 37t32 55t11.5 66.5zM136 598q-2 5 -3 11.5t-1 14.5q0 45 29 71t74 26q26 0 46.5 -9.5t38 -21t32.5 -21t30 -9.5q13 0 21.5 7.5t9.5 21.5v4.5t-1 4.5l69 7q2 -5 3 -11.5
t1 -14.5q0 -45 -29 -71t-74 -26q-26 0 -46.5 9.5t-38 21t-32.5 21t-30 9.5q-13 0 -21.5 -7.5t-9.5 -21.5v-4.5t1 -4.5z" />
    <glyph glyph-name="odieresis" unicode="&#xf6;" horiz-adv-x="600" 
d="M300 518q56 0 103.5 -20.5t82.5 -56.5t54.5 -84.5t19.5 -103.5q0 -56 -19.5 -104t-54.5 -84t-82.5 -56.5t-103.5 -20.5t-104 20.5t-82.5 56.5t-54 84t-19.5 104q0 55 19.5 103.5t54 84.5t82.5 56.5t104 20.5zM455 253q0 36 -11.5 67t-32 54.5t-49 37t-62.5 13.5
t-62.5 -13.5t-49 -37t-32 -54.5t-11.5 -67q0 -35 11.5 -66.5t32 -55t49 -37t62.5 -13.5t62.5 13.5t49 37t32 55t11.5 66.5zM141 598v107h105v-107h-105zM354 598v107h105v-107h-105z" />
    <glyph glyph-name="divide" unicode="&#xf7;" 
d="M24 355h501v-87h-501v87zM216 55v124h117v-124h-117zM216 444v124h117v-124h-117z" />
    <glyph glyph-name="oslash" unicode="&#xf8;" horiz-adv-x="600" 
d="M300 518q32 0 61.5 -7t53.5 -20l25 37l59 -38l-26 -37q40 -36 63.5 -88t23.5 -112q0 -56 -19.5 -104t-54.5 -84t-82.5 -56.5t-103.5 -20.5q-34 0 -64.5 7.5t-56.5 21.5l-27 -40l-59 38l29 42q-38 36 -60 86.5t-22 109.5q0 55 19.5 103.5t54 84.5t82.5 56.5t104 20.5z
M455 253q0 68 -39 115l-183 -271q29 -16 67 -16q34 0 62.5 13.5t49 37t32 55t11.5 66.5zM145 253q0 -64 34 -110l182 268q-26 14 -61 14q-34 0 -62.5 -13.5t-49 -37t-32 -54.5t-11.5 -67z" />
    <glyph glyph-name="ugrave" unicode="&#xf9;" horiz-adv-x="609" 
d="M431 0l-3 80q-29 -45 -72 -68.5t-92 -23.5q-51 0 -86 17t-58 47q-26 36 -35.5 85t-9.5 106v263h103v-254q0 -35 3.5 -70.5t20.5 -61.5q11 -18 31.5 -28.5t51.5 -10.5q41 0 78.5 25t62.5 65v335h103v-506h-98zM168 732l73 57l126 -173l-62 -47z" />
    <glyph glyph-name="uacute" unicode="&#xfa;" horiz-adv-x="609" 
d="M431 0l-3 80q-29 -45 -72 -68.5t-92 -23.5q-51 0 -86 17t-58 47q-26 36 -35.5 85t-9.5 106v263h103v-254q0 -35 3.5 -70.5t20.5 -61.5q11 -18 31.5 -28.5t51.5 -10.5q41 0 78.5 25t62.5 65v335h103v-506h-98zM314 569l-62 47l126 173l73 -57z" />
    <glyph glyph-name="ucircumflex" unicode="&#xfb;" horiz-adv-x="609" 
d="M431 0l-3 80q-29 -45 -72 -68.5t-92 -23.5q-51 0 -86 17t-58 47q-26 36 -35.5 85t-9.5 106v263h103v-254q0 -35 3.5 -70.5t20.5 -61.5q11 -18 31.5 -28.5t51.5 -10.5q41 0 78.5 25t62.5 65v335h103v-506h-98zM361 778l103 -168l-60 -39l-96 135l-95 -135l-61 39l105 168
h104z" />
    <glyph glyph-name="udieresis" unicode="&#xfc;" horiz-adv-x="609" 
d="M431 0l-3 80q-29 -45 -72 -68.5t-92 -23.5q-51 0 -86 17t-58 47q-26 36 -35.5 85t-9.5 106v263h103v-254q0 -35 3.5 -70.5t20.5 -61.5q11 -18 31.5 -28.5t51.5 -10.5q41 0 78.5 25t62.5 65v335h103v-506h-98zM143 598v107h105v-107h-105zM356 598v107h105v-107h-105z" />
    <glyph glyph-name="yacute" unicode="&#xfd;" horiz-adv-x="490" 
d="M119 506l124 -364h2l128 364h112l-285 -735l-91 36l80 212l-184 487h114zM243 569l-62 47l126 173l73 -57z" />
    <glyph glyph-name="thorn" unicode="&#xfe;" horiz-adv-x="630" 
d="M184 750v-308q27 38 70.5 57t87.5 19q54 0 99.5 -21t78.5 -57t51.5 -84.5t18.5 -103.5q0 -51 -18 -98.5t-51 -84.5t-79 -59t-102 -22q-43 0 -84.5 16.5t-71.5 48.5v-303h-104v1000h104zM184 153q26 -36 63.5 -54t75.5 -18q41 0 71.5 15.5t50.5 40t30 55.5t10 62
q0 34 -11 65t-32 54.5t-50.5 37.5t-66.5 14q-20 0 -40.5 -5.5t-39.5 -16.5t-35 -28t-26 -39v-183z" />
    <glyph glyph-name="ydieresis" unicode="&#xff;" horiz-adv-x="490" 
d="M119 506l124 -364h2l128 364h112l-285 -735l-91 36l80 212l-184 487h114zM88 598v107h105v-107h-105zM301 598v107h105v-107h-105z" />
    <glyph glyph-name="Amacron" unicode="&#x100;" horiz-adv-x="662" 
d="M471 144h-287l-52 -144h-118l275 700h91l267 -700h-124zM219 238h218l-108 299h-1zM164 773v77h338v-77h-338z" />
    <glyph glyph-name="amacron" unicode="&#x101;" horiz-adv-x="553" 
d="M383 0l-3 51q-29 -34 -65 -48.5t-83 -14.5q-35 0 -67.5 9t-57.5 28.5t-40 48.5t-15 70q0 48 19.5 80t51 51.5t72 27.5t81.5 8q20 0 44 -2.5t55 -8.5v15q0 56 -27 86.5t-88 30.5q-44 0 -85.5 -14t-73.5 -31l-29 83q42 20 96 34t108 14t92.5 -14.5t63 -42t35.5 -66.5
t11 -88v-307h-95zM375 228q-26 5 -46.5 7t-39.5 2q-22 0 -46 -3.5t-44 -13.5t-33 -27t-13 -44q0 -21 7.5 -36t20.5 -24.5t30 -14t36 -4.5q37 0 68 16t60 40v102zM125 608v77h308v-77h-308z" />
    <glyph glyph-name="Abreve" unicode="&#x102;" horiz-adv-x="662" 
d="M471 144h-287l-52 -144h-118l275 700h91l267 -700h-124zM219 238h218l-108 299h-1zM482 906v-7q0 -31 -11.5 -57t-31.5 -45t-47 -29.5t-58 -10.5t-58 10.5t-47 29.5t-31.5 45t-11.5 57v7h72v-8q0 -32 22 -51t54 -19t54 19t22 51v8h72z" />
    <glyph glyph-name="abreve" unicode="&#x103;" horiz-adv-x="553" 
d="M383 0l-3 51q-29 -34 -65 -48.5t-83 -14.5q-35 0 -67.5 9t-57.5 28.5t-40 48.5t-15 70q0 48 19.5 80t51 51.5t72 27.5t81.5 8q20 0 44 -2.5t55 -8.5v15q0 56 -27 86.5t-88 30.5q-44 0 -85.5 -14t-73.5 -31l-29 83q42 20 96 34t108 14t92.5 -14.5t63 -42t35.5 -66.5
t11 -88v-307h-95zM375 228q-26 5 -46.5 7t-39.5 2q-22 0 -46 -3.5t-44 -13.5t-33 -27t-13 -44q0 -21 7.5 -36t20.5 -24.5t30 -14t36 -4.5q37 0 68 16t60 40v102zM436 735v-18q0 -31 -11.5 -58t-31.5 -47t-47 -31.5t-58 -11.5t-58 11.5t-47 31.5t-31.5 47t-11.5 58v18h74v-19
q0 -32 21 -54t53 -22t54 22t22 54v19h72z" />
    <glyph glyph-name="Aogonek" unicode="&#x104;" horiz-adv-x="662" 
d="M219 238h218l-108 299h-1zM442 -123q0 38 21.5 71t59.5 53l-52 143h-287l-52 -144h-118l275 700h91l267 -700q-32 -7 -54 -19t-35.5 -27t-19.5 -30.5t-6 -30.5q0 -20 11 -31.5t33 -11.5t44 14l33 -57q-17 -15 -42.5 -23t-52.5 -8q-23 0 -43.5 6.5t-37 19.5t-26 32
t-9.5 43z" />
    <glyph glyph-name="aogonek" unicode="&#x105;" horiz-adv-x="553" 
d="M375 228q-26 5 -46.5 7t-39.5 2q-22 0 -46 -3.5t-44 -13.5t-33 -27t-13 -44q0 -21 7.5 -36t20.5 -24.5t30 -14t36 -4.5q37 0 68 16t60 40v102zM478 0q-17 -4 -36 -13.5t-35 -23t-26 -31.5t-10 -39q0 -20 11 -31.5t33 -11.5q23 0 45 14l32 -57q-17 -15 -42.5 -23t-51.5 -8
q-23 0 -44 6.5t-37.5 19.5t-26 31t-9.5 42q0 45 26.5 75t75.5 54l-3 47q-29 -34 -65 -48.5t-83 -14.5q-35 0 -67.5 9t-57.5 28.5t-40 48.5t-15 70q0 48 19.5 80t51 51.5t72 27.5t81.5 8q20 0 44 -2.5t55 -8.5v15q0 56 -27 86.5t-88 30.5q-44 0 -85.5 -14t-73.5 -31l-29 83
q42 20 96 34t108 14t92.5 -14.5t63 -42t35.5 -66.5t11 -88v-307z" />
    <glyph glyph-name="Cacute" unicode="&#x106;" horiz-adv-x="674" 
d="M171 350q0 -61 19 -110.5t53.5 -84t82.5 -53.5t107 -19q81 0 153 52l58 -79q-47 -33 -100.5 -50.5t-112.5 -17.5q-78 0 -146.5 26t-119 73t-79.5 114t-29 149q0 77 29.5 143.5t80.5 115t119.5 76t146.5 27.5q54 0 102 -15t92 -43l-51 -82q-32 20 -68 32.5t-75 12.5
q-57 0 -105 -20t-83 -55.5t-54.5 -84.5t-19.5 -107zM403 738l-47 61l166 139l58 -73z" />
    <glyph glyph-name="cacute" unicode="&#x107;" horiz-adv-x="484" 
d="M460 41q-30 -26 -71.5 -39.5t-89.5 -13.5q-55 0 -102 19t-82 54t-55 83.5t-20 108.5q0 55 20 103.5t55.5 84.5t83.5 56.5t104 20.5q44 0 82 -12.5t70 -35.5l-50 -81q-22 17 -48 26.5t-54 9.5q-33 0 -62 -13.5t-50 -37t-33.5 -54.5t-12.5 -67q0 -39 13 -70.5t34.5 -54
t50 -35t60.5 -12.5q26 0 55 9.5t50 26.5zM314 569l-62 47l126 173l73 -57z" />
    <glyph glyph-name="Ccircumflex" unicode="&#x108;" horiz-adv-x="674" 
d="M171 350q0 -61 19 -110.5t53.5 -84t82.5 -53.5t107 -19q81 0 153 52l58 -79q-47 -33 -100.5 -50.5t-112.5 -17.5q-78 0 -146.5 26t-119 73t-79.5 114t-29 149q0 77 29.5 143.5t80.5 115t119.5 76t146.5 27.5q54 0 102 -15t92 -43l-51 -82q-32 20 -68 32.5t-75 12.5
q-57 0 -105 -20t-83 -55.5t-54.5 -84.5t-19.5 -107zM479 921l108 -132l-61 -47l-103 109l-105 -109l-61 47l111 132h111z" />
    <glyph glyph-name="ccircumflex" unicode="&#x109;" horiz-adv-x="484" 
d="M460 41q-30 -26 -71.5 -39.5t-89.5 -13.5q-55 0 -102 19t-82 54t-55 83.5t-20 108.5q0 55 20 103.5t55.5 84.5t83.5 56.5t104 20.5q44 0 82 -12.5t70 -35.5l-50 -81q-22 17 -48 26.5t-54 9.5q-33 0 -62 -13.5t-50 -37t-33.5 -54.5t-12.5 -67q0 -39 13 -70.5t34.5 -54
t50 -35t60.5 -12.5q26 0 55 9.5t50 26.5zM346 778l103 -168l-60 -39l-96 135l-95 -135l-61 39l105 168h104z" />
    <glyph glyph-name="Cdotaccent" unicode="&#x10a;" horiz-adv-x="674" 
d="M171 350q0 -61 19 -110.5t53.5 -84t82.5 -53.5t107 -19q81 0 153 52l58 -79q-47 -33 -100.5 -50.5t-112.5 -17.5q-78 0 -146.5 26t-119 73t-79.5 114t-29 149q0 77 29.5 143.5t80.5 115t119.5 76t146.5 27.5q54 0 102 -15t92 -43l-51 -82q-32 20 -68 32.5t-75 12.5
q-57 0 -105 -20t-83 -55.5t-54.5 -84.5t-19.5 -107zM363 763v114h112v-114h-112z" />
    <glyph glyph-name="cdotaccent" unicode="&#x10b;" horiz-adv-x="484" 
d="M460 41q-30 -26 -71.5 -39.5t-89.5 -13.5q-55 0 -102 19t-82 54t-55 83.5t-20 108.5q0 55 20 103.5t55.5 84.5t83.5 56.5t104 20.5q44 0 82 -12.5t70 -35.5l-50 -81q-22 17 -48 26.5t-54 9.5q-33 0 -62 -13.5t-50 -37t-33.5 -54.5t-12.5 -67q0 -39 13 -70.5t34.5 -54
t50 -35t60.5 -12.5q26 0 55 9.5t50 26.5zM233 598v107h103v-107h-103z" />
    <glyph glyph-name="Ccaron" unicode="&#x10c;" horiz-adv-x="674" 
d="M171 350q0 -61 19 -110.5t53.5 -84t82.5 -53.5t107 -19q81 0 153 52l58 -79q-47 -33 -100.5 -50.5t-112.5 -17.5q-78 0 -146.5 26t-119 73t-79.5 114t-29 149q0 77 29.5 143.5t80.5 115t119.5 76t146.5 27.5q54 0 102 -15t92 -43l-51 -82q-32 20 -68 32.5t-75 12.5
q-57 0 -105 -20t-83 -55.5t-54.5 -84.5t-19.5 -107zM366 753l-108 132l63 47l103 -109l105 109l59 -47l-111 -132h-111z" />
    <glyph glyph-name="ccaron" unicode="&#x10d;" horiz-adv-x="484" 
d="M460 41q-30 -26 -71.5 -39.5t-89.5 -13.5q-55 0 -102 19t-82 54t-55 83.5t-20 108.5q0 55 20 103.5t55.5 84.5t83.5 56.5t104 20.5q44 0 82 -12.5t70 -35.5l-50 -81q-22 17 -48 26.5t-54 9.5q-33 0 -62 -13.5t-50 -37t-33.5 -54.5t-12.5 -67q0 -39 13 -70.5t34.5 -54
t50 -35t60.5 -12.5q26 0 55 9.5t50 26.5zM241 571l-103 168l62 38l96 -135l95 135l59 -38l-105 -168h-104z" />
    <glyph glyph-name="Dcaron" unicode="&#x10e;" horiz-adv-x="718" 
d="M91 700h192q67 0 134.5 -18.5t121.5 -60t88 -107.5t34 -161q0 -97 -34 -164.5t-88.5 -109.5t-124 -60.5t-140.5 -18.5h-183v700zM547 344q0 129 -73.5 195.5t-207.5 66.5h-68v-512h29q72 0 131 12.5t101 42t65 77t23 118.5zM268 753l-108 132l63 47l103 -109l105 109
l59 -47l-111 -132h-111z" />
    <glyph glyph-name="dcaron" unicode="&#x10f;" horiz-adv-x="648" 
d="M550 0h-98l-3 67q-27 -40 -71.5 -59.5t-89.5 -19.5q-54 0 -99.5 20.5t-78.5 56.5t-51.5 84.5t-18.5 104.5q0 51 18 98.5t51 84.5t79 59t102 22q43 0 85 -17t72 -49v298h103v-750zM447 352q-26 36 -64 54.5t-76 18.5q-41 0 -71.5 -15.5t-50.5 -40t-30 -55.5t-10 -62
q0 -34 11 -65t32 -54.5t50.5 -37.5t66.5 -14q19 0 40 5.5t40.5 17t35.5 28t26 39.5v181zM581 546l40 204h100l-54 -204h-86z" />
    <glyph glyph-name="Dcroat" unicode="&#x110;" horiz-adv-x="718" 
d="M91 319h-69v84h69v297h192q67 0 134.5 -18.5t121.5 -60t88 -107.5t34 -161q0 -97 -34 -164.5t-88.5 -109.5t-124 -60.5t-140.5 -18.5h-183v319zM547 344q0 129 -73.5 195.5t-207.5 66.5h-68v-203h119v-84h-119v-225h29q72 0 131 12.5t101 42t65 77t23 118.5z" />
    <glyph glyph-name="dcroat" unicode="&#x111;" horiz-adv-x="630" 
d="M288 -12q-54 0 -99.5 20.5t-78.5 56.5t-51.5 84.5t-18.5 104.5q0 51 18 98.5t51 84.5t79 59t102 22q43 0 85 -17t72 -49v135h-163v78h163v85h103v-85h70v-78h-70v-587h-98l-3 67q-27 -40 -71.5 -59.5t-89.5 -19.5zM305 81q19 0 40 5.5t40.5 17t35.5 28t26 39.5v181
q-26 36 -64 54.5t-76 18.5q-41 0 -71.5 -15.5t-50.5 -40t-30 -55.5t-10 -62q0 -34 11 -65t32 -54.5t50.5 -37.5t66.5 -14z" />
    <glyph glyph-name="Emacron" unicode="&#x112;" horiz-adv-x="580" 
d="M91 0v700h427v-94h-320v-198h320v-94h-320v-220h320v-94h-427zM143 773v77h338v-77h-338z" />
    <glyph glyph-name="emacron" unicode="&#x113;" horiz-adv-x="567" 
d="M144 227q3 -31 14.5 -58.5t31 -48.5t46.5 -33t61 -12q51 0 87.5 19t59.5 61l72 -47q-39 -62 -92.5 -91t-131.5 -29q-60 0 -106.5 20.5t-79 56t-49.5 83.5t-17 104q0 57 19.5 105.5t53.5 84t80 56t99 20.5q51 0 94 -17.5t74.5 -49t49 -74.5t17.5 -94q0 -14 -1.5 -29.5
t-3.5 -26.5h-378zM420 306q-2 26 -11.5 49t-26 40t-39 27t-49.5 10q-29 0 -53 -9.5t-42 -26.5t-30 -40t-19 -50h270zM140 608v77h308v-77h-308z" />
    <glyph glyph-name="Ebreve" unicode="&#x114;" horiz-adv-x="580" 
d="M91 0v700h427v-94h-320v-198h320v-94h-320v-220h320v-94h-427zM472 906v-7q0 -31 -11.5 -57t-31.5 -45t-47 -29.5t-58 -10.5t-58 10.5t-47 29.5t-31.5 45t-11.5 57v7h72v-8q0 -32 22 -51t54 -19t54 19t22 51v8h72z" />
    <glyph glyph-name="ebreve" unicode="&#x115;" horiz-adv-x="567" 
d="M144 227q3 -31 14.5 -58.5t31 -48.5t46.5 -33t61 -12q51 0 87.5 19t59.5 61l72 -47q-39 -62 -92.5 -91t-131.5 -29q-60 0 -106.5 20.5t-79 56t-49.5 83.5t-17 104q0 57 19.5 105.5t53.5 84t80 56t99 20.5q51 0 94 -17.5t74.5 -49t49 -74.5t17.5 -94q0 -14 -1.5 -29.5
t-3.5 -26.5h-378zM420 306q-2 26 -11.5 49t-26 40t-39 27t-49.5 10q-29 0 -53 -9.5t-42 -26.5t-30 -40t-19 -50h270zM441 735v-18q0 -31 -11.5 -58t-31.5 -47t-47 -31.5t-58 -11.5t-58 11.5t-47 31.5t-31.5 47t-11.5 58v18h74v-19q0 -32 21 -54t53 -22t54 22t22 54v19h72z
" />
    <glyph glyph-name="Edotaccent" unicode="&#x116;" horiz-adv-x="580" 
d="M91 0v700h427v-94h-320v-198h320v-94h-320v-220h320v-94h-427zM258 763v114h112v-114h-112z" />
    <glyph glyph-name="edotaccent" unicode="&#x117;" horiz-adv-x="567" 
d="M144 227q3 -31 14.5 -58.5t31 -48.5t46.5 -33t61 -12q51 0 87.5 19t59.5 61l72 -47q-39 -62 -92.5 -91t-131.5 -29q-60 0 -106.5 20.5t-79 56t-49.5 83.5t-17 104q0 57 19.5 105.5t53.5 84t80 56t99 20.5q51 0 94 -17.5t74.5 -49t49 -74.5t17.5 -94q0 -14 -1.5 -29.5
t-3.5 -26.5h-378zM420 306q-2 26 -11.5 49t-26 40t-39 27t-49.5 10q-29 0 -53 -9.5t-42 -26.5t-30 -40t-19 -50h270zM237 598v107h103v-107h-103z" />
    <glyph glyph-name="Eogonek" unicode="&#x118;" horiz-adv-x="580" 
d="M91 700h427v-94h-320v-198h320v-94h-320v-220h320v-94q-32 -5 -54.5 -17t-37 -27.5t-21.5 -32t-7 -30.5q0 -20 11 -31.5t33 -11.5q23 0 45 14l32 -57q-17 -15 -42 -23t-52 -8q-23 0 -44 6.5t-37.5 19.5t-26 32t-9.5 43q0 38 21.5 70.5t63.5 52.5h-302v700z" />
    <glyph glyph-name="eogonek" unicode="&#x119;" horiz-adv-x="567" 
d="M420 306q-2 26 -11.5 49t-26 40t-39 27t-49.5 10q-29 0 -53 -9.5t-42 -26.5t-30 -40t-19 -50h270zM144 227q3 -31 14.5 -58.5t31 -48.5t46.5 -33t61 -12q51 0 87.5 19t59.5 61l72 -47q-26 -41 -57 -66t-70 -40q-46 -18 -73 -44t-27 -57q0 -51 44 -51q22 0 45 14l32 -57
q-17 -15 -42.5 -23t-52.5 -8q-24 0 -45 6.5t-36.5 19.5t-25 32t-9.5 43q0 32 18 62t48 51q-53 5 -94.5 27t-70.5 57t-44.5 80.5t-15.5 97.5q0 57 19.5 105.5t53.5 84t80 56t99 20.5q51 0 94 -17.5t74.5 -49t49 -74.5t17.5 -94q0 -14 -1.5 -29.5t-3.5 -26.5h-378z" />
    <glyph glyph-name="Ecaron" unicode="&#x11a;" horiz-adv-x="580" 
d="M91 0v700h427v-94h-320v-198h320v-94h-320v-220h320v-94h-427zM252 753l-108 132l63 47l103 -109l105 109l59 -47l-111 -132h-111z" />
    <glyph glyph-name="ecaron" unicode="&#x11b;" horiz-adv-x="567" 
d="M144 227q3 -31 14.5 -58.5t31 -48.5t46.5 -33t61 -12q51 0 87.5 19t59.5 61l72 -47q-39 -62 -92.5 -91t-131.5 -29q-60 0 -106.5 20.5t-79 56t-49.5 83.5t-17 104q0 57 19.5 105.5t53.5 84t80 56t99 20.5q51 0 94 -17.5t74.5 -49t49 -74.5t17.5 -94q0 -14 -1.5 -29.5
t-3.5 -26.5h-378zM420 306q-2 26 -11.5 49t-26 40t-39 27t-49.5 10q-29 0 -53 -9.5t-42 -26.5t-30 -40t-19 -50h270zM240 571l-103 168l62 38l96 -135l95 135l59 -38l-105 -168h-104z" />
    <glyph glyph-name="Gcircumflex" unicode="&#x11c;" horiz-adv-x="801" 
d="M441 298v94h283v-268q-52 -66 -127.5 -101t-163.5 -35q-80 0 -149 26t-119.5 74t-79 114.5t-28.5 147.5q0 77 29.5 143.5t80.5 115t119.5 76t146.5 27.5q83 0 153.5 -33.5t122.5 -93.5l-75 -64q-37 42 -89 69t-112 27q-57 0 -105 -20t-83 -55.5t-54.5 -84.5t-19.5 -107
q0 -61 19 -110.5t53.5 -84t83 -53.5t106.5 -19q52 0 100 18.5t84 53.5v143h-176zM489 921l108 -132l-61 -47l-103 109l-105 -109l-61 47l111 132h111z" />
    <glyph glyph-name="gcircumflex" unicode="&#x11d;" horiz-adv-x="625" 
d="M447 352q-26 36 -64 54.5t-76 18.5q-41 0 -71.5 -14.5t-50.5 -38t-30 -53.5t-10 -61q0 -34 11 -64t32 -52.5t50.5 -35.5t66.5 -13q19 0 40 5.5t40.5 17t35.5 28t26 39.5v169zM447 77q-27 -38 -71 -57.5t-88 -19.5q-54 0 -99.5 20t-78.5 54.5t-51.5 82t-18.5 103.5
q0 51 18 97.5t51 82.5t79 57t102 21q44 0 87 -18t73 -51l2 57h98v-479q0 -80 -28 -133q-34 -64 -95 -91t-132 -27q-59 0 -119 17t-108 51l40 87q18 -14 41 -25t47 -19.5t48.5 -13t47.5 -4.5q31 0 59 8t49.5 25t34 44.5t12.5 65.5v65zM348 778l103 -168l-60 -39l-96 135
l-95 -135l-61 39l105 168h104z" />
    <glyph glyph-name="Gbreve" unicode="&#x11e;" horiz-adv-x="801" 
d="M441 298v94h283v-268q-52 -66 -127.5 -101t-163.5 -35q-80 0 -149 26t-119.5 74t-79 114.5t-28.5 147.5q0 77 29.5 143.5t80.5 115t119.5 76t146.5 27.5q83 0 153.5 -33.5t122.5 -93.5l-75 -64q-37 42 -89 69t-112 27q-57 0 -105 -20t-83 -55.5t-54.5 -84.5t-19.5 -107
q0 -61 19 -110.5t53.5 -84t83 -53.5t106.5 -19q52 0 100 18.5t84 53.5v143h-176zM582 906v-7q0 -31 -11.5 -57t-31.5 -45t-47 -29.5t-58 -10.5t-58 10.5t-47 29.5t-31.5 45t-11.5 57v7h72v-8q0 -32 22 -51t54 -19t54 19t22 51v8h72z" />
    <glyph glyph-name="gbreve" unicode="&#x11f;" horiz-adv-x="625" 
d="M447 352q-26 36 -64 54.5t-76 18.5q-41 0 -71.5 -14.5t-50.5 -38t-30 -53.5t-10 -61q0 -34 11 -64t32 -52.5t50.5 -35.5t66.5 -13q19 0 40 5.5t40.5 17t35.5 28t26 39.5v169zM447 77q-27 -38 -71 -57.5t-88 -19.5q-54 0 -99.5 20t-78.5 54.5t-51.5 82t-18.5 103.5
q0 51 18 97.5t51 82.5t79 57t102 21q44 0 87 -18t73 -51l2 57h98v-479q0 -80 -28 -133q-34 -64 -95 -91t-132 -27q-59 0 -119 17t-108 51l40 87q18 -14 41 -25t47 -19.5t48.5 -13t47.5 -4.5q31 0 59 8t49.5 25t34 44.5t12.5 65.5v65zM452 735v-18q0 -31 -11.5 -58t-31.5 -47
t-47 -31.5t-58 -11.5t-58 11.5t-47 31.5t-31.5 47t-11.5 58v18h74v-19q0 -32 21 -54t53 -22t54 22t22 54v19h72z" />
    <glyph glyph-name="Gdotaccent" unicode="&#x120;" horiz-adv-x="801" 
d="M441 298v94h283v-268q-52 -66 -127.5 -101t-163.5 -35q-80 0 -149 26t-119.5 74t-79 114.5t-28.5 147.5q0 77 29.5 143.5t80.5 115t119.5 76t146.5 27.5q83 0 153.5 -33.5t122.5 -93.5l-75 -64q-37 42 -89 69t-112 27q-57 0 -105 -20t-83 -55.5t-54.5 -84.5t-19.5 -107
q0 -61 19 -110.5t53.5 -84t83 -53.5t106.5 -19q52 0 100 18.5t84 53.5v143h-176zM364 763v114h112v-114h-112z" />
    <glyph glyph-name="gdotaccent" unicode="&#x121;" horiz-adv-x="625" 
d="M447 352q-26 36 -64 54.5t-76 18.5q-41 0 -71.5 -14.5t-50.5 -38t-30 -53.5t-10 -61q0 -34 11 -64t32 -52.5t50.5 -35.5t66.5 -13q19 0 40 5.5t40.5 17t35.5 28t26 39.5v169zM447 77q-27 -38 -71 -57.5t-88 -19.5q-54 0 -99.5 20t-78.5 54.5t-51.5 82t-18.5 103.5
q0 51 18 97.5t51 82.5t79 57t102 21q44 0 87 -18t73 -51l2 57h98v-479q0 -80 -28 -133q-34 -64 -95 -91t-132 -27q-59 0 -119 17t-108 51l40 87q18 -14 41 -25t47 -19.5t48.5 -13t47.5 -4.5q31 0 59 8t49.5 25t34 44.5t12.5 65.5v65zM244 598v107h103v-107h-103z" />
    <glyph glyph-name="Gcommaaccent" unicode="&#x122;" horiz-adv-x="801" 
d="M441 298v94h283v-268q-52 -66 -127.5 -101t-163.5 -35q-80 0 -149 26t-119.5 74t-79 114.5t-28.5 147.5q0 77 29.5 143.5t80.5 115t119.5 76t146.5 27.5q83 0 153.5 -33.5t122.5 -93.5l-75 -64q-37 42 -89 69t-112 27q-57 0 -105 -20t-83 -55.5t-54.5 -84.5t-19.5 -107
q0 -61 19 -110.5t53.5 -84t83 -53.5t106.5 -19q52 0 100 18.5t84 53.5v143h-176zM324 -235l36 178h96l-49 -178h-83z" />
    <glyph glyph-name="gcommaaccent" unicode="&#x123;" horiz-adv-x="625" 
d="M447 352q-26 36 -64 54.5t-76 18.5q-41 0 -71.5 -14.5t-50.5 -38t-30 -53.5t-10 -61q0 -34 11 -64t32 -52.5t50.5 -35.5t66.5 -13q19 0 40 5.5t40.5 17t35.5 28t26 39.5v169zM447 77q-27 -38 -71 -57.5t-88 -19.5q-54 0 -99.5 20t-78.5 54.5t-51.5 82t-18.5 103.5
q0 51 18 97.5t51 82.5t79 57t102 21q44 0 87 -18t73 -51l2 57h98v-479q0 -80 -28 -133q-34 -64 -95 -91t-132 -27q-59 0 -119 17t-108 51l40 87q18 -14 41 -25t47 -19.5t48.5 -13t47.5 -4.5q31 0 59 8t49.5 25t34 44.5t12.5 65.5v65zM382 752l-37 -182h-98l49 182h86z" />
    <glyph glyph-name="Hcircumflex" unicode="&#x124;" horiz-adv-x="749" 
d="M551 0v314h-353v-314h-107v700h107v-292h353v292h107v-700h-107zM431 921l108 -132l-61 -47l-103 109l-105 -109l-61 47l111 132h111z" />
    <glyph glyph-name="hcircumflex" unicode="&#x125;" horiz-adv-x="609" 
d="M183 428q29 43 71.5 66.5t90.5 23.5q51 0 86 -17t58 -47q26 -36 35.5 -85t9.5 -106v-263h-103v254q0 35 -3.5 70.5t-20.5 61.5q-11 18 -31.5 28.5t-51.5 10.5q-41 0 -78.5 -25t-62.5 -65v-335h-103v750h103v-322zM187 927l108 -132l-61 -47l-103 109l-105 -109l-61 47
l111 132h111z" />
    <glyph glyph-name="Hbar" unicode="&#x126;" horiz-adv-x="749" 
d="M551 0v314h-353v-314h-107v512h-89v81h89v107h107v-107h353v107h107v-107h89v-81h-89v-512h-107zM551 408v104h-353v-104h353z" />
    <glyph glyph-name="hbar" unicode="&#x127;" horiz-adv-x="609" 
d="M183 665h164v-78h-164v-159q29 43 71.5 66.5t90.5 23.5q51 0 86 -17t58 -47q26 -36 35.5 -85t9.5 -106v-263h-103v254q0 35 -3.5 70.5t-20.5 61.5q-11 18 -31.5 28.5t-51.5 10.5q-41 0 -78.5 -25t-62.5 -65v-335h-103v587h-70v78h70v85h103v-85z" />
    <glyph glyph-name="Itilde" unicode="&#x128;" horiz-adv-x="289" 
d="M91 0v700h107v-700h-107zM318 881q3 -12 3 -30q0 -45 -28.5 -71t-73.5 -26q-26 0 -46 9.5t-37.5 21t-32.5 21t-31 9.5q-13 0 -21.5 -7t-9.5 -21q0 -7 1 -10l-69 -7q-3 12 -3 30q0 45 28.5 71t73.5 26q25 0 45.5 -9.5t38 -21t33 -21t30.5 -9.5q13 0 22 7t9 21q0 7 -1 10z
" />
    <glyph glyph-name="itilde" unicode="&#x129;" horiz-adv-x="263" 
d="M80 0v506h103v-506h-103zM-40 598q-2 5 -3 11.5t-1 14.5q0 45 29 71t74 26q26 0 46.5 -9.5t38 -21t32.5 -21t30 -9.5q13 0 21.5 7.5t9.5 21.5v4.5t-1 4.5l69 7q2 -5 3 -11.5t1 -14.5q0 -45 -29 -71t-74 -26q-26 0 -46.5 9.5t-38 21t-32.5 21t-30 9.5q-13 0 -21.5 -7.5
t-9.5 -21.5v-4.5t1 -4.5z" />
    <glyph glyph-name="Imacron" unicode="&#x12a;" horiz-adv-x="289" 
d="M91 0v700h107v-700h-107zM-24 773v77h338v-77h-338z" />
    <glyph glyph-name="imacron" unicode="&#x12b;" horiz-adv-x="263" 
d="M80 0v506h103v-506h-103zM-22 608v77h308v-77h-308z" />
    <glyph glyph-name="Iogonek" unicode="&#x12e;" horiz-adv-x="289" 
d="M91 700h107v-700q-28 -8 -47.5 -20t-31.5 -26.5t-17 -30.5t-5 -30q0 -20 11 -31.5t33 -11.5t45 14l32 -57q-17 -15 -42.5 -23t-51.5 -8q-23 0 -44 6.5t-37.5 19.5t-26 32t-9.5 43q0 39 21.5 72.5t62.5 53.5v697z" />
    <glyph glyph-name="iogonek" unicode="&#x12f;" horiz-adv-x="263" 
d="M80 598v107h103v-107h-103zM80 506h103v-506q-27 -8 -45 -20t-29.5 -26t-16.5 -28.5t-5 -26.5q0 -49 43 -49q23 0 45 14l33 -57q-18 -15 -43 -23t-52 -8q-23 0 -44 6.5t-37 19.5t-26 32t-10 43q0 45 22 75.5t62 50.5v503z" />
    <glyph glyph-name="Idotaccent" unicode="&#x130;" horiz-adv-x="289" 
d="M88 763v114h113v-114h-113zM91 0v700h107v-700h-107z" />
    <glyph glyph-name="dotlessi" unicode="&#x131;" horiz-adv-x="263" 
d="M80 0v506h103v-506h-103z" />
    <glyph glyph-name="IJ" unicode="&#x132;" horiz-adv-x="646" 
d="M560 179q0 -44 -8.5 -78.5t-26.5 -58.5q-20 -27 -52.5 -40.5t-81.5 -13.5q-26 0 -55.5 6.5t-53.5 17.5l31 87q15 -8 30 -12t33 -4q45 0 62 24q10 13 12.5 34.5t2.5 51.5v507h107v-521zM91 0v700h107v-700h-107z" />
    <glyph glyph-name="ij" unicode="&#x133;" horiz-adv-x="536" 
d="M80 0v506h103v-506h-103zM80 598v107h103v-107h-103zM352 598v107h103v-107h-103zM455 -42q0 -31 -3.5 -56.5t-14.5 -47.5q-16 -35 -49 -56t-88 -21q-57 0 -100 22l29 83q11 -6 25.5 -10t31.5 -4q23 0 36 8.5t20 22.5t8.5 33.5t1.5 41.5v532h103v-548z" />
    <glyph glyph-name="Jcircumflex" unicode="&#x134;" horiz-adv-x="342" 
d="M256 179q0 -44 -8.5 -78.5t-26.5 -58.5q-20 -27 -52.5 -40.5t-81.5 -13.5q-26 0 -55.5 6.5t-53.5 17.5l31 87q15 -8 30 -12t33 -4q45 0 62 24q10 13 12.5 34.5t2.5 51.5v507h107v-521zM259 921l108 -132l-61 -47l-103 109l-105 -109l-61 47l111 132h111z" />
    <glyph glyph-name="jcircumflex" unicode="&#x135;" horiz-adv-x="272" 
d="M191 -42q0 -31 -3.5 -56.5t-14.5 -47.5q-16 -35 -49 -56t-88 -21q-57 0 -100 22l29 83q11 -6 25.5 -10t31.5 -4q23 0 36 8.5t20 22.5t8.5 33.5t1.5 41.5v532h103v-548zM192 778l103 -168l-60 -39l-96 135l-95 -135l-61 39l105 168h104z" />
    <glyph glyph-name="Kcommaaccent" unicode="&#x136;" horiz-adv-x="626" 
d="M375 422l246 -422h-125l-194 336l-104 -124v-212h-107v700h107v-340l280 340h131zM244 -235l36 178h96l-49 -178h-83z" />
    <glyph glyph-name="kcommaaccent" unicode="&#x137;" horiz-adv-x="524" 
d="M183 264l2 -1l195 243h124l-179 -208l194 -298h-124l-138 218l-74 -86v-132h-103v750h103v-486zM188 -235l36 178h96l-49 -178h-83z" />
    <glyph glyph-name="Lacute" unicode="&#x139;" horiz-adv-x="503" 
d="M91 0v700h107v-606h300v-94h-407zM140 738l-47 61l166 139l58 -73z" />
    <glyph glyph-name="lacute" unicode="&#x13a;" horiz-adv-x="263" 
d="M183 0h-103v750h103v-750zM113 782l-47 61l166 139l58 -73z" />
    <glyph glyph-name="Lcommaaccent" unicode="&#x13b;" horiz-adv-x="503" 
d="M91 0v700h107v-606h300v-94h-407zM222 -235l36 178h96l-49 -178h-83z" />
    <glyph glyph-name="lcommaaccent" unicode="&#x13c;" horiz-adv-x="263" 
d="M183 0h-103v750h103v-750zM45 -235l36 178h96l-49 -178h-83z" />
    <glyph glyph-name="Lcaron" unicode="&#x13d;" horiz-adv-x="503" 
d="M91 0v700h107v-606h300v-94h-407zM269 496l40 204h100l-54 -204h-86z" />
    <glyph glyph-name="lcaron" unicode="&#x13e;" horiz-adv-x="277" 
d="M183 0h-103v750h103v-750zM214 546l40 204h100l-54 -204h-86z" />
    <glyph glyph-name="Ldot" unicode="&#x13f;" horiz-adv-x="506" 
d="M91 0v700h107v-606h300v-94h-407zM352 313v114h112v-114h-112z" />
    <glyph glyph-name="ldot" unicode="&#x140;" horiz-adv-x="295" 
d="M183 0h-103v750h103v-750zM225 314v114h112v-114h-112z" />
    <glyph glyph-name="Lslash" unicode="&#x141;" horiz-adv-x="503" 
d="M91 0v269l-89 -58v101l89 57v331h107v-277l147 96v-101l-147 -95v-229h300v-94h-407z" />
    <glyph glyph-name="lslash" unicode="&#x142;" horiz-adv-x="263" 
d="M80 0v310l-67 -43v99l67 43v341h103v-289l69 45v-100l-69 -44v-362h-103z" />
    <glyph glyph-name="Nacute" unicode="&#x143;" horiz-adv-x="753" 
d="M567 0l-369 502v-502h-107v700h94l370 -502v502h107v-700h-95zM364 738l-47 61l166 139l58 -73z" />
    <glyph glyph-name="nacute" unicode="&#x144;" horiz-adv-x="609" 
d="M178 506l3 -80q29 45 72 68.5t92 23.5q51 0 86 -17t58 -47q26 -36 35.5 -85t9.5 -106v-263h-103v254q0 35 -3.5 70.5t-20.5 61.5q-11 18 -31.5 28.5t-51.5 10.5q-41 0 -78.5 -25t-62.5 -65v-335h-103v506h98zM327 569l-62 47l126 173l73 -57z" />
    <glyph glyph-name="Ncommaaccent" unicode="&#x145;" horiz-adv-x="753" 
d="M567 0l-369 502v-502h-107v700h94l370 -502v502h107v-700h-95zM284 -235l36 178h96l-49 -178h-83z" />
    <glyph glyph-name="ncommaaccent" unicode="&#x146;" horiz-adv-x="609" 
d="M178 506l3 -80q29 45 72 68.5t92 23.5q51 0 86 -17t58 -47q26 -36 35.5 -85t9.5 -106v-263h-103v254q0 35 -3.5 70.5t-20.5 61.5q-11 18 -31.5 28.5t-51.5 10.5q-41 0 -78.5 -25t-62.5 -65v-335h-103v506h98zM223 -235l36 178h96l-49 -178h-83z" />
    <glyph glyph-name="Ncaron" unicode="&#x147;" horiz-adv-x="753" 
d="M567 0l-369 502v-502h-107v700h94l370 -502v502h107v-700h-95zM327 753l-108 132l63 47l103 -109l105 109l59 -47l-111 -132h-111z" />
    <glyph glyph-name="ncaron" unicode="&#x148;" horiz-adv-x="609" 
d="M178 506l3 -80q29 45 72 68.5t92 23.5q51 0 86 -17t58 -47q26 -36 35.5 -85t9.5 -106v-263h-103v254q0 35 -3.5 70.5t-20.5 61.5q-11 18 -31.5 28.5t-51.5 10.5q-41 0 -78.5 -25t-62.5 -65v-335h-103v506h98zM265 571l-103 168l62 38l96 -135l95 135l59 -38l-105 -168
h-104z" />
    <glyph glyph-name="napostrophe" unicode="&#x149;" horiz-adv-x="618" 
d="M-19 512l50 245h111l-65 -245h-96zM208 506l3 -80q29 45 72 68.5t92 23.5q51 0 86 -17t58 -47q26 -36 35.5 -85t9.5 -106v-263h-103v254q0 35 -3.5 70.5t-20.5 61.5q-11 18 -31.5 28.5t-51.5 10.5q-41 0 -78.5 -25t-62.5 -65v-335h-103v506h98z" />
    <glyph glyph-name="Omacron" unicode="&#x14c;" horiz-adv-x="838" 
d="M667 350q0 56 -18.5 105t-51.5 85t-78.5 56.5t-99.5 20.5t-99.5 -20.5t-78.5 -56.5t-51.5 -85t-18.5 -105t18.5 -105t51.5 -85t78.5 -56.5t99.5 -20.5t99.5 20.5t78.5 56.5t51.5 85t18.5 105zM781 350q0 -75 -27.5 -141t-76.5 -115t-115 -77.5t-143 -28.5t-143 28.5
t-115 77.5t-76.5 115t-27.5 141t27.5 141t76.5 115t115 77.5t143 28.5t143 -28.5t115 -77.5t76.5 -115t27.5 -141zM250 773v77h338v-77h-338z" />
    <glyph glyph-name="omacron" unicode="&#x14d;" horiz-adv-x="600" 
d="M300 518q56 0 103.5 -20.5t82.5 -56.5t54.5 -84.5t19.5 -103.5q0 -56 -19.5 -104t-54.5 -84t-82.5 -56.5t-103.5 -20.5t-104 20.5t-82.5 56.5t-54 84t-19.5 104q0 55 19.5 103.5t54 84.5t82.5 56.5t104 20.5zM455 253q0 36 -11.5 67t-32 54.5t-49 37t-62.5 13.5
t-62.5 -13.5t-49 -37t-32 -54.5t-11.5 -67q0 -35 11.5 -66.5t32 -55t49 -37t62.5 -13.5t62.5 13.5t49 37t32 55t11.5 66.5zM146 608v77h308v-77h-308z" />
    <glyph glyph-name="Obreve" unicode="&#x14e;" horiz-adv-x="838" 
d="M667 350q0 56 -18.5 105t-51.5 85t-78.5 56.5t-99.5 20.5t-99.5 -20.5t-78.5 -56.5t-51.5 -85t-18.5 -105t18.5 -105t51.5 -85t78.5 -56.5t99.5 -20.5t99.5 20.5t78.5 56.5t51.5 85t18.5 105zM781 350q0 -75 -27.5 -141t-76.5 -115t-115 -77.5t-143 -28.5t-143 28.5
t-115 77.5t-76.5 115t-27.5 141t27.5 141t76.5 115t115 77.5t143 28.5t143 -28.5t115 -77.5t76.5 -115t27.5 -141zM567 906v-7q0 -31 -11.5 -57t-31.5 -45t-47 -29.5t-58 -10.5t-58 10.5t-47 29.5t-31.5 45t-11.5 57v7h72v-8q0 -32 22 -51t54 -19t54 19t22 51v8h72z" />
    <glyph glyph-name="obreve" unicode="&#x14f;" horiz-adv-x="600" 
d="M300 518q56 0 103.5 -20.5t82.5 -56.5t54.5 -84.5t19.5 -103.5q0 -56 -19.5 -104t-54.5 -84t-82.5 -56.5t-103.5 -20.5t-104 20.5t-82.5 56.5t-54 84t-19.5 104q0 55 19.5 103.5t54 84.5t82.5 56.5t104 20.5zM455 253q0 36 -11.5 67t-32 54.5t-49 37t-62.5 13.5
t-62.5 -13.5t-49 -37t-32 -54.5t-11.5 -67q0 -35 11.5 -66.5t32 -55t49 -37t62.5 -13.5t62.5 13.5t49 37t32 55t11.5 66.5zM448 735v-18q0 -31 -11.5 -58t-31.5 -47t-47 -31.5t-58 -11.5t-58 11.5t-47 31.5t-31.5 47t-11.5 58v18h74v-19q0 -32 21 -54t53 -22t54 22t22 54v19
h72z" />
    <glyph glyph-name="Ohungarumlaut" unicode="&#x150;" horiz-adv-x="838" 
d="M667 350q0 56 -18.5 105t-51.5 85t-78.5 56.5t-99.5 20.5t-99.5 -20.5t-78.5 -56.5t-51.5 -85t-18.5 -105t18.5 -105t51.5 -85t78.5 -56.5t99.5 -20.5t99.5 20.5t78.5 56.5t51.5 85t18.5 105zM781 350q0 -75 -27.5 -141t-76.5 -115t-115 -77.5t-143 -28.5t-143 28.5
t-115 77.5t-76.5 115t-27.5 141t27.5 141t76.5 115t115 77.5t143 28.5t143 -28.5t115 -77.5t76.5 -115t27.5 -141zM292 738l-47 59l166 139l58 -71zM516 738l-47 61l160 135l58 -73z" />
    <glyph glyph-name="ohungarumlaut" unicode="&#x151;" horiz-adv-x="600" 
d="M300 518q56 0 103.5 -20.5t82.5 -56.5t54.5 -84.5t19.5 -103.5q0 -56 -19.5 -104t-54.5 -84t-82.5 -56.5t-103.5 -20.5t-104 20.5t-82.5 56.5t-54 84t-19.5 104q0 55 19.5 103.5t54 84.5t82.5 56.5t104 20.5zM455 253q0 36 -11.5 67t-32 54.5t-49 37t-62.5 13.5
t-62.5 -13.5t-49 -37t-32 -54.5t-11.5 -67q0 -35 11.5 -66.5t32 -55t49 -37t62.5 -13.5t62.5 13.5t49 37t32 55t11.5 66.5zM234 577l-62 46l130 180l74 -58zM403 568l-63 47l127 173l73 -57z" />
    <glyph glyph-name="OE" unicode="&#x152;" horiz-adv-x="1061" 
d="M572 0v32q-32 -21 -70 -32.5t-83 -11.5q-77 0 -143 28.5t-115 77.5t-76.5 115t-27.5 141t27.5 141t76.5 115t115 77.5t143 28.5q44 0 82.5 -11.5t70.5 -31.5v31h427v-94h-320v-198h320v-94h-320v-220h320v-94h-427zM419 83q45 0 83 14t70 40v426q-32 26 -70 40t-83 14
q-54 0 -99.5 -20.5t-78.5 -56.5t-51.5 -85t-18.5 -105t18.5 -105t51.5 -85t78.5 -56.5t99.5 -20.5z" />
    <glyph glyph-name="oe" unicode="&#x153;" horiz-adv-x="977" 
d="M300 518q67 0 119.5 -29t84.5 -78q32 49 83 78t115 29q51 0 94 -17.5t74.5 -49t49 -74.5t17.5 -94q0 -14 -1.5 -29.5t-3.5 -26.5h-378q3 -31 14.5 -58.5t31 -48.5t46.5 -33t61 -12q51 0 87.5 19t59.5 61l72 -47q-39 -62 -92.5 -91t-131.5 -29q-71 0 -121 27.5t-80 75.5
q-32 -48 -83.5 -75.5t-117.5 -27.5q-56 0 -104 20.5t-82.5 56.5t-54 84t-19.5 104q0 55 19.5 103.5t54 84.5t82.5 56.5t104 20.5zM455 253q0 36 -11.5 67t-32 54.5t-49 37t-62.5 13.5t-62.5 -13.5t-49 -37t-32 -54.5t-11.5 -67q0 -35 11.5 -66.5t32 -55t49 -37t62.5 -13.5
t62.5 13.5t49 37t32 55t11.5 66.5zM704 432q-29 0 -53 -9.5t-42 -26.5t-30 -40t-19 -50h270q-2 26 -11.5 49t-26 40t-39 27t-49.5 10z" />
    <glyph glyph-name="Racute" unicode="&#x154;" horiz-adv-x="618" 
d="M302 700q41 0 84 -11t78.5 -35.5t58 -63t22.5 -93.5q0 -44 -14 -77.5t-37.5 -57.5t-53.5 -39.5t-61 -22.5l220 -300h-134l-206 292h-61v-292h-107v700h211zM198 386h80q66 0 109.5 25.5t43.5 82.5q0 51 -37 81.5t-97 30.5h-99v-220zM274 738l-47 61l166 139l58 -73z" />
    <glyph glyph-name="racute" unicode="&#x155;" horiz-adv-x="361" 
d="M181 427q23 40 55.5 65.5t72.5 25.5q31 0 58 -7l-21 -104q-21 11 -48 11q-37 0 -65.5 -20.5t-49.5 -57.5v-340h-103v506h98zM217 569l-62 47l126 173l73 -57z" />
    <glyph glyph-name="Rcommaaccent" unicode="&#x156;" horiz-adv-x="618" 
d="M302 700q41 0 84 -11t78.5 -35.5t58 -63t22.5 -93.5q0 -44 -14 -77.5t-37.5 -57.5t-53.5 -39.5t-61 -22.5l220 -300h-134l-206 292h-61v-292h-107v700h211zM198 386h80q66 0 109.5 25.5t43.5 82.5q0 51 -37 81.5t-97 30.5h-99v-220zM238 -235l36 178h96l-49 -178h-83z
" />
    <glyph glyph-name="rcommaaccent" unicode="&#x157;" horiz-adv-x="361" 
d="M181 427q23 40 55.5 65.5t72.5 25.5q31 0 58 -7l-21 -104q-21 11 -48 11q-37 0 -65.5 -20.5t-49.5 -57.5v-340h-103v506h98zM45 -235l36 178h96l-49 -178h-83z" />
    <glyph glyph-name="Rcaron" unicode="&#x158;" horiz-adv-x="618" 
d="M302 700q41 0 84 -11t78.5 -35.5t58 -63t22.5 -93.5q0 -44 -14 -77.5t-37.5 -57.5t-53.5 -39.5t-61 -22.5l220 -300h-134l-206 292h-61v-292h-107v700h211zM198 386h80q66 0 109.5 25.5t43.5 82.5q0 51 -37 81.5t-97 30.5h-99v-220zM252 753l-108 132l63 47l103 -109
l105 109l59 -47l-111 -132h-111z" />
    <glyph glyph-name="rcaron" unicode="&#x159;" horiz-adv-x="361" 
d="M181 427q23 40 55.5 65.5t72.5 25.5q31 0 58 -7l-21 -104q-21 11 -48 11q-37 0 -65.5 -20.5t-49.5 -57.5v-340h-103v506h98zM167 571l-103 168l62 38l96 -135l95 135l59 -38l-105 -168h-104z" />
    <glyph glyph-name="Sacute" unicode="&#x15a;" horiz-adv-x="612" 
d="M460 560q-26 23 -65 40t-81 17q-51 0 -84 -23t-33 -67q0 -22 11.5 -37.5t30 -27.5t43.5 -21.5t52 -18.5q37 -13 75.5 -29t69.5 -40.5t51 -60t20 -86.5q0 -59 -23.5 -100t-60 -67.5t-81 -38.5t-85.5 -12q-78 0 -139 26t-118 82l75 71q47 -47 88.5 -65.5t94.5 -18.5
q25 0 49.5 6.5t43.5 20t30.5 35t11.5 51.5q0 27 -12.5 46.5t-33.5 33.5t-48.5 25t-56.5 21q-36 13 -70.5 29t-62.5 38.5t-45 54t-17 74.5q0 49 17.5 85.5t47 60.5t68 36t81.5 12q65 0 118.5 -18.5t102.5 -56.5zM300 738l-47 61l166 139l58 -73z" />
    <glyph glyph-name="sacute" unicode="&#x15b;" horiz-adv-x="458" 
d="M334 395q-17 16 -45 27.5t-55 11.5q-31 0 -50 -16.5t-19 -43.5q0 -14 8 -24.5t21 -19t29.5 -16t34.5 -14.5q25 -10 51 -22t47.5 -30t35.5 -42t14 -58q0 -42 -15.5 -72.5t-41.5 -50t-59.5 -28.5t-69.5 -9q-54 0 -101.5 20.5t-80.5 60.5l68 59q26 -27 53.5 -41t59.5 -14
q33 0 58.5 17t25.5 52q0 15 -8 26t-21.5 20t-30.5 16t-36 15q-25 10 -50 21.5t-45.5 28t-33 40t-12.5 57.5q0 39 14 67.5t37.5 47t53.5 28t63 9.5q45 0 86.5 -14.5t73.5 -43.5zM260 569l-62 47l126 173l73 -57z" />
    <glyph glyph-name="Scircumflex" unicode="&#x15c;" horiz-adv-x="612" 
d="M460 560q-26 23 -65 40t-81 17q-51 0 -84 -23t-33 -67q0 -22 11.5 -37.5t30 -27.5t43.5 -21.5t52 -18.5q37 -13 75.5 -29t69.5 -40.5t51 -60t20 -86.5q0 -59 -23.5 -100t-60 -67.5t-81 -38.5t-85.5 -12q-78 0 -139 26t-118 82l75 71q47 -47 88.5 -65.5t94.5 -18.5
q25 0 49.5 6.5t43.5 20t30.5 35t11.5 51.5q0 27 -12.5 46.5t-33.5 33.5t-48.5 25t-56.5 21q-36 13 -70.5 29t-62.5 38.5t-45 54t-17 74.5q0 49 17.5 85.5t47 60.5t68 36t81.5 12q65 0 118.5 -18.5t102.5 -56.5zM371 921l108 -132l-61 -47l-103 109l-105 -109l-61 47l111 132
h111z" />
    <glyph glyph-name="scircumflex" unicode="&#x15d;" horiz-adv-x="458" 
d="M334 395q-17 16 -45 27.5t-55 11.5q-31 0 -50 -16.5t-19 -43.5q0 -14 8 -24.5t21 -19t29.5 -16t34.5 -14.5q25 -10 51 -22t47.5 -30t35.5 -42t14 -58q0 -42 -15.5 -72.5t-41.5 -50t-59.5 -28.5t-69.5 -9q-54 0 -101.5 20.5t-80.5 60.5l68 59q26 -27 53.5 -41t59.5 -14
q33 0 58.5 17t25.5 52q0 15 -8 26t-21.5 20t-30.5 16t-36 15q-25 10 -50 21.5t-45.5 28t-33 40t-12.5 57.5q0 39 14 67.5t37.5 47t53.5 28t63 9.5q45 0 86.5 -14.5t73.5 -43.5zM291 778l103 -168l-60 -39l-96 135l-95 -135l-61 39l105 168h104z" />
    <glyph glyph-name="Scedilla" unicode="&#x15e;" horiz-adv-x="609" 
d="M460 560q-26 23 -65 40t-81 17q-51 0 -84 -23t-33 -67q0 -22 11.5 -37.5t30 -27.5t43.5 -21.5t52 -18.5q37 -13 75.5 -29t69.5 -40.5t51 -60t20 -86.5q0 -57 -22 -97.5t-57 -66.5t-77.5 -39.5t-82.5 -14.5l-22 -52l2 -1q8 7 19.5 11.5t27.5 4.5q40 0 64.5 -27.5
t24.5 -67.5q0 -20 -8.5 -39t-23.5 -33.5t-35 -23t-44 -8.5q-70 0 -106 62l60 29q7 -18 19 -25t26 -7q19 0 30 12.5t11 29.5t-10.5 31.5t-30.5 14.5q-26 0 -40 -23l-65 34l38 81q-60 8 -109 33.5t-96 71.5l75 71q47 -47 88.5 -65.5t94.5 -18.5q25 0 49.5 6.5t43.5 20t30.5 35
t11.5 51.5q0 27 -12.5 46.5t-33.5 33.5t-48.5 25t-56.5 21q-36 13 -70.5 29t-62.5 38.5t-45 54t-17 74.5q0 49 17.5 85.5t47 60.5t68 36t81.5 12q65 0 118.5 -18.5t102.5 -56.5l-65 -77v0z" />
    <glyph glyph-name="scedilla" unicode="&#x15f;" horiz-adv-x="458" 
d="M334 395q-17 16 -45 27.5t-55 11.5q-31 0 -50 -16.5t-19 -43.5q0 -14 8 -24.5t21 -19t29.5 -16t34.5 -14.5q25 -10 51 -22t47.5 -30t35.5 -42t14 -58q0 -41 -14 -70t-38 -48.5t-55 -29.5t-65 -11l-19 -53l1 -1q22 16 47 16q35 0 62 -26.5t27 -68.5q0 -20 -8.5 -39
t-23.5 -33.5t-35 -23t-44 -8.5q-71 0 -106 62l60 29q7 -18 19 -25t26 -7q19 0 30 12.5t11 29.5q0 19 -11.5 32.5t-31.5 13.5q-12 0 -22.5 -6t-15.5 -17l-64 33l34 84q-39 7 -73 26t-59 50l68 59q26 -27 53.5 -41t59.5 -14q33 0 58.5 17t25.5 52q0 15 -8 26t-21.5 20
t-30.5 16t-36 15q-25 10 -50 21.5t-45.5 28t-33 40t-12.5 57.5q0 39 14 67.5t37.5 47t53.5 28t63 9.5q45 0 86.5 -14.5t73.5 -43.5z" />
    <glyph glyph-name="Scaron" unicode="&#x160;" horiz-adv-x="612" 
d="M460 560q-26 23 -65 40t-81 17q-51 0 -84 -23t-33 -67q0 -22 11.5 -37.5t30 -27.5t43.5 -21.5t52 -18.5q37 -13 75.5 -29t69.5 -40.5t51 -60t20 -86.5q0 -59 -23.5 -100t-60 -67.5t-81 -38.5t-85.5 -12q-78 0 -139 26t-118 82l75 71q47 -47 88.5 -65.5t94.5 -18.5
q25 0 49.5 6.5t43.5 20t30.5 35t11.5 51.5q0 27 -12.5 46.5t-33.5 33.5t-48.5 25t-56.5 21q-36 13 -70.5 29t-62.5 38.5t-45 54t-17 74.5q0 49 17.5 85.5t47 60.5t68 36t81.5 12q65 0 118.5 -18.5t102.5 -56.5zM257 753l-108 132l63 47l103 -109l105 109l59 -47l-111 -132
h-111z" />
    <glyph glyph-name="scaron" unicode="&#x161;" horiz-adv-x="458" 
d="M334 395q-17 16 -45 27.5t-55 11.5q-31 0 -50 -16.5t-19 -43.5q0 -14 8 -24.5t21 -19t29.5 -16t34.5 -14.5q25 -10 51 -22t47.5 -30t35.5 -42t14 -58q0 -42 -15.5 -72.5t-41.5 -50t-59.5 -28.5t-69.5 -9q-54 0 -101.5 20.5t-80.5 60.5l68 59q26 -27 53.5 -41t59.5 -14
q33 0 58.5 17t25.5 52q0 15 -8 26t-21.5 20t-30.5 16t-36 15q-25 10 -50 21.5t-45.5 28t-33 40t-12.5 57.5q0 39 14 67.5t37.5 47t53.5 28t63 9.5q45 0 86.5 -14.5t73.5 -43.5zM188 571l-103 168l62 38l96 -135l95 135l59 -38l-105 -168h-104z" />
    <glyph glyph-name="Tcommaaccent" unicode="&#x162;" horiz-adv-x="489" 
d="M298 606v-606h-21l-23 -64l1 -1q22 16 47 16q35 0 62 -26.5t27 -68.5q0 -20 -8.5 -39t-23.5 -33.5t-35 -23t-43 -8.5q-71 0 -106 62l59 29q7 -18 19 -25t26 -7q19 0 30.5 12.5t11.5 29.5q0 19 -12 32.5t-32 13.5q-11 0 -21.5 -6t-16.5 -17l-64 33l38 91h-22v606h-174v94
h455v-94h-174z" />
    <glyph glyph-name="tcommaaccent" unicode="&#x163;" horiz-adv-x="354" 
d="M189 417v-220v-19.5t1 -20.5q2 -36 16 -56t48 -20q17 0 31 4t26 10l30 -81q-20 -11 -47.5 -17.5t-53.5 -6.5h-10l-20 -54l1 -1q22 16 47 16q35 0 62 -26.5t27 -68.5q0 -20 -8.5 -39t-23.5 -33.5t-35 -23t-43 -8.5q-71 0 -106 62l59 29q7 -18 19 -25t26 -7q19 0 30.5 12.5
t11.5 29.5q0 19 -12 32.5t-32 13.5q-11 0 -21.5 -6t-16.5 -17l-64 33l39 94q-50 21 -69 73q-8 21 -11.5 46.5t-3.5 53.5v241h-66v89h66l5 119h98v-119h139v-89h-139z" />
    <glyph glyph-name="Tcaron" unicode="&#x164;" horiz-adv-x="489" 
d="M298 606v-606h-107v606h-174v94h455v-94h-174zM187 753l-108 132l63 47l103 -109l105 109l59 -47l-111 -132h-111z" />
    <glyph glyph-name="tcaron" unicode="&#x165;" horiz-adv-x="354" 
d="M189 417v-220v-19.5t1 -20.5q2 -36 16 -56t48 -20q17 0 31 4t26 10l30 -81q-20 -11 -47.5 -17.5t-53.5 -6.5q-55 0 -89.5 23.5t-49.5 62.5q-8 21 -11.5 46.5t-3.5 53.5v241h-66v89h66l5 119h98v-119h139v-89h-139zM246 571l40 204h100l-54 -204h-86z" />
    <glyph glyph-name="Tbar" unicode="&#x166;" horiz-adv-x="489" 
d="M298 606v-202h109v-87h-109v-317h-107v317h-109v87h109v202h-174v94h455v-94h-174z" />
    <glyph glyph-name="tbar" unicode="&#x167;" horiz-adv-x="354" 
d="M189 227v-30v-19.5t1 -20.5q2 -36 16 -56t48 -20q17 0 31 4t26 10l30 -81q-20 -11 -47.5 -17.5t-53.5 -6.5q-55 0 -89.5 23.5t-49.5 62.5q-8 21 -11.5 46.5t-3.5 53.5v51h-66v81h66v109h-66v89h66l5 119h98v-119h139v-89h-139v-109h139v-81h-139z" />
    <glyph glyph-name="Utilde" unicode="&#x168;" horiz-adv-x="721" 
d="M634 329q0 -165 -65.5 -253t-210.5 -88q-71 0 -122.5 22.5t-84.5 65.5t-48.5 106.5t-15.5 146.5v371h107v-394q0 -113 44.5 -168t121.5 -55q78 0 122.5 55t44.5 168v394h107v-371zM532 881q3 -12 3 -30q0 -45 -28.5 -71t-73.5 -26q-26 0 -46 9.5t-37.5 21t-32.5 21
t-31 9.5q-13 0 -21.5 -7t-9.5 -21q0 -7 1 -10l-69 -7q-3 12 -3 30q0 45 28.5 71t73.5 26q25 0 45.5 -9.5t38 -21t33 -21t30.5 -9.5q13 0 22 7t9 21q0 7 -1 10z" />
    <glyph glyph-name="utilde" unicode="&#x169;" horiz-adv-x="609" 
d="M431 0l-3 80q-29 -45 -72 -68.5t-92 -23.5q-51 0 -86 17t-58 47q-26 36 -35.5 85t-9.5 106v263h103v-254q0 -35 3.5 -70.5t20.5 -61.5q11 -18 31.5 -28.5t51.5 -10.5q41 0 78.5 25t62.5 65v335h103v-506h-98zM141 598q-2 5 -3 11.5t-1 14.5q0 45 29 71t74 26
q26 0 46.5 -9.5t38 -21t32.5 -21t30 -9.5q13 0 21.5 7.5t9.5 21.5v4.5t-1 4.5l69 7q2 -5 3 -11.5t1 -14.5q0 -45 -29 -71t-74 -26q-26 0 -46.5 9.5t-38 21t-32.5 21t-30 9.5q-13 0 -21.5 -7.5t-9.5 -21.5v-4.5t1 -4.5z" />
    <glyph glyph-name="Umacron" unicode="&#x16a;" horiz-adv-x="721" 
d="M634 329q0 -165 -65.5 -253t-210.5 -88q-71 0 -122.5 22.5t-84.5 65.5t-48.5 106.5t-15.5 146.5v371h107v-394q0 -113 44.5 -168t121.5 -55q78 0 122.5 55t44.5 168v394h107v-371zM191 773v77h338v-77h-338z" />
    <glyph glyph-name="umacron" unicode="&#x16b;" horiz-adv-x="609" 
d="M431 0l-3 80q-29 -45 -72 -68.5t-92 -23.5q-51 0 -86 17t-58 47q-26 36 -35.5 85t-9.5 106v263h103v-254q0 -35 3.5 -70.5t20.5 -61.5q11 -18 31.5 -28.5t51.5 -10.5q41 0 78.5 25t62.5 65v335h103v-506h-98zM148 608v77h308v-77h-308z" />
    <glyph glyph-name="Ubreve" unicode="&#x16c;" horiz-adv-x="721" 
d="M634 329q0 -165 -65.5 -253t-210.5 -88q-71 0 -122.5 22.5t-84.5 65.5t-48.5 106.5t-15.5 146.5v371h107v-394q0 -113 44.5 -168t121.5 -55q78 0 122.5 55t44.5 168v394h107v-371zM509 906v-7q0 -31 -11.5 -57t-31.5 -45t-47 -29.5t-58 -10.5t-58 10.5t-47 29.5t-31.5 45
t-11.5 57v7h72v-8q0 -32 22 -51t54 -19t54 19t22 51v8h72z" />
    <glyph glyph-name="ubreve" unicode="&#x16d;" horiz-adv-x="609" 
d="M431 0l-3 80q-29 -45 -72 -68.5t-92 -23.5q-51 0 -86 17t-58 47q-26 36 -35.5 85t-9.5 106v263h103v-254q0 -35 3.5 -70.5t20.5 -61.5q11 -18 31.5 -28.5t51.5 -10.5q41 0 78.5 25t62.5 65v335h103v-506h-98zM454 735v-18q0 -31 -11.5 -58t-31.5 -47t-47 -31.5t-58 -11.5
t-58 11.5t-47 31.5t-31.5 47t-11.5 58v18h74v-19q0 -32 21 -54t53 -22t54 22t22 54v19h72z" />
    <glyph glyph-name="Uring" unicode="&#x16e;" horiz-adv-x="721" 
d="M634 329q0 -165 -65.5 -253t-210.5 -88q-71 0 -122.5 22.5t-84.5 65.5t-48.5 106.5t-15.5 146.5v371h107v-394q0 -113 44.5 -168t121.5 -55q78 0 122.5 55t44.5 168v394h107v-371zM262 822q0 41 28.5 69.5t69.5 28.5t69.5 -28.5t28.5 -69.5t-28.5 -69.5t-69.5 -28.5
t-69.5 28.5t-28.5 69.5zM316 822q0 -18 13 -31t31 -13t31 13t13 31t-13 31t-31 13t-31 -13t-13 -31z" />
    <glyph glyph-name="uring" unicode="&#x16f;" horiz-adv-x="609" 
d="M431 0l-3 80q-29 -45 -72 -68.5t-92 -23.5q-51 0 -86 17t-58 47q-26 36 -35.5 85t-9.5 106v263h103v-254q0 -35 3.5 -70.5t20.5 -61.5q11 -18 31.5 -28.5t51.5 -10.5q41 0 78.5 25t62.5 65v335h103v-506h-98zM207 661q0 41 28.5 69.5t69.5 28.5t69.5 -28.5t28.5 -69.5
t-28.5 -69.5t-69.5 -28.5t-69.5 28.5t-28.5 69.5zM261 661q0 -18 13 -31t31 -13t31 13t13 31t-13 31t-31 13t-31 -13t-13 -31z" />
    <glyph glyph-name="Uhungarumlaut" unicode="&#x170;" horiz-adv-x="721" 
d="M634 329q0 -165 -65.5 -253t-210.5 -88q-71 0 -122.5 22.5t-84.5 65.5t-48.5 106.5t-15.5 146.5v371h107v-394q0 -113 44.5 -168t121.5 -55q78 0 122.5 55t44.5 168v394h107v-371zM230 738l-47 59l166 139l58 -71zM454 738l-47 61l160 135l58 -73z" />
    <glyph glyph-name="uhungarumlaut" unicode="&#x171;" horiz-adv-x="609" 
d="M431 0l-3 80q-29 -45 -72 -68.5t-92 -23.5q-51 0 -86 17t-58 47q-26 36 -35.5 85t-9.5 106v263h103v-254q0 -35 3.5 -70.5t20.5 -61.5q11 -18 31.5 -28.5t51.5 -10.5q41 0 78.5 25t62.5 65v335h103v-506h-98zM224 577l-62 46l130 180l74 -58zM393 568l-63 47l127 173
l73 -57z" />
    <glyph glyph-name="Uogonek" unicode="&#x172;" horiz-adv-x="721" 
d="M634 329q0 -134 -42 -217.5t-135 -110.5q-17 -5 -34.5 -15t-31.5 -23.5t-23 -30.5t-9 -36q0 -21 11 -33.5t33 -12.5t44 14l33 -57q-17 -15 -42.5 -23t-52.5 -8q-23 0 -43.5 6.5t-37 19.5t-26 32t-9.5 43q0 32 16 62t46 50q-128 8 -186 95.5t-58 244.5v371h107v-394
q0 -113 44.5 -168t121.5 -55q78 0 122.5 55t44.5 168v394h107v-371z" />
    <glyph glyph-name="uogonek" unicode="&#x173;" horiz-adv-x="609" 
d="M332 -123q0 37 24 69.5t75 55.5l-3 78q-29 -45 -72 -68.5t-92 -23.5q-51 0 -86 17t-58 47q-26 36 -35.5 85t-9.5 106v263h103v-254q0 -35 3.5 -70.5t20.5 -61.5q11 -18 31.5 -28.5t51.5 -10.5q41 0 78.5 25t62.5 65v335h103v-506q-21 -7 -40 -16.5t-34 -22.5t-24 -30
t-9 -38q0 -20 11 -31.5t33 -11.5q23 0 45 14l32 -57q-17 -15 -42.5 -23t-51.5 -8q-23 0 -44 6.5t-37.5 19.5t-26 32t-9.5 43z" />
    <glyph glyph-name="Wcircumflex" unicode="&#x174;" horiz-adv-x="900" 
d="M637 191h2l140 509h116l-200 -700h-107l-137 515h-2l-147 -515h-104l-193 700h119l134 -509h2l141 509h101zM508 921l108 -132l-61 -47l-103 109l-105 -109l-61 47l111 132h111z" />
    <glyph glyph-name="wcircumflex" unicode="&#x175;" horiz-adv-x="745" 
d="M525 133h3l97 373h106l-147 -506h-109l-102 368h-2l-104 -368h-113l-140 506h111l90 -373h2l106 373h104zM427 778l103 -168l-60 -39l-96 135l-95 -135l-61 39l105 168h104z" />
    <glyph glyph-name="Ycircumflex" unicode="&#x176;" horiz-adv-x="568" 
d="M228 0v302l-223 398h133l148 -284h2l150 284h125l-228 -403v-297h-107zM341 921l108 -132l-61 -47l-103 109l-105 -109l-61 47l111 132h111z" />
    <glyph glyph-name="ycircumflex" unicode="&#x177;" horiz-adv-x="490" 
d="M119 506l124 -364h2l128 364h112l-285 -735l-91 36l80 212l-184 487h114zM305 778l103 -168l-60 -39l-96 135l-95 -135l-61 39l105 168h104z" />
    <glyph glyph-name="Ydieresis" unicode="&#x178;" horiz-adv-x="568" 
d="M227 0v302l-222 398h133l148 -284h2l150 284h125l-228 -403v-297h-108zM116 763v114h112v-114h-112zM355 763v114h112v-114h-112z" />
    <glyph glyph-name="Zacute" unicode="&#x179;" horiz-adv-x="551" 
d="M186 94h346v-94h-494v57l322 549h-314v94h461v-57zM247 738l-47 61l166 139l58 -73z" />
    <glyph glyph-name="zacute" unicode="&#x17a;" horiz-adv-x="461" 
d="M273 417h-227v89h364v-46l-217 -371h234v-89h-370v47zM240 569l-62 47l126 173l73 -57z" />
    <glyph glyph-name="Zdotaccent" unicode="&#x17b;" horiz-adv-x="551" 
d="M186 94h346v-94h-494v57l322 549h-314v94h461v-57zM213 763v114h112v-114h-112z" />
    <glyph glyph-name="zdotaccent" unicode="&#x17c;" horiz-adv-x="461" 
d="M273 417h-227v89h364v-46l-217 -371h234v-89h-370v47zM173 598v107h103v-107h-103z" />
    <glyph glyph-name="Zcaron" unicode="&#x17d;" horiz-adv-x="551" 
d="M186 94h346v-94h-494v57l322 549h-314v94h461v-57zM218 753l-108 132l63 47l103 -109l105 109l59 -47l-111 -132h-111z" />
    <glyph glyph-name="zcaron" unicode="&#x17e;" horiz-adv-x="461" 
d="M273 417h-227v89h364v-46l-217 -371h234v-89h-370v47zM188 571l-103 168l62 38l96 -135l95 135l59 -38l-105 -168h-104z" />
    <glyph glyph-name="florin" unicode="&#x192;" 
d="M401 312h-130l-40 -354q-9 -82 -50 -124.5t-103 -42.5q-21 0 -42.5 3.5t-41.5 8.5l22 88q24 -8 50 -8q36 0 47.5 25t16.5 70l38 334h-79v92h89l12 105q9 81 53 124t114 43q35 0 68.5 -8.5t65.5 -24.5l-39 -84q-38 25 -84 25q-21 0 -35 -6.5t-22.5 -18.5t-12.5 -29.5
t-7 -39.5l-10 -86h120v-92z" />
    <glyph glyph-name="Scommaaccent" unicode="&#x218;" horiz-adv-x="609" 
d="M460 560q-26 23 -65 40t-81 17q-51 0 -84 -23t-33 -67q0 -22 11.5 -37.5t30 -27.5t43.5 -21.5t52 -18.5q37 -13 75.5 -29t69.5 -40.5t51 -60t20 -86.5q0 -59 -23.5 -100t-60 -67.5t-81 -38.5t-85.5 -12q-78 0 -139 26t-118 82l75 71q47 -47 88.5 -65.5t94.5 -18.5
q25 0 49.5 6.5t43.5 20t30.5 35t11.5 51.5q0 27 -12.5 46.5t-33.5 33.5t-48.5 25t-56.5 21q-36 13 -70.5 29t-62.5 38.5t-45 54t-17 74.5q0 49 17.5 85.5t47 60.5t68 36t81.5 12q65 0 118.5 -18.5t102.5 -56.5zM184 -235l36 178h96l-49 -178h-83z" />
    <glyph glyph-name="scommaaccent" unicode="&#x219;" horiz-adv-x="458" 
d="M334 395q-17 16 -45 27.5t-55 11.5q-31 0 -50 -16.5t-19 -43.5q0 -14 8 -24.5t21 -19t29.5 -16t34.5 -14.5q25 -10 51 -22t47.5 -30t35.5 -42t14 -58q0 -42 -15.5 -72.5t-41.5 -50t-59.5 -28.5t-69.5 -9q-54 0 -101.5 20.5t-80.5 60.5l68 59q26 -27 53.5 -41t59.5 -14
q33 0 58.5 17t25.5 52q0 15 -8 26t-21.5 20t-30.5 16t-36 15q-25 10 -50 21.5t-45.5 28t-33 40t-12.5 57.5q0 39 14 67.5t37.5 47t53.5 28t63 9.5q45 0 86.5 -14.5t73.5 -43.5zM120 -235l36 178h96l-49 -178h-83z" />
    <glyph glyph-name="uni021A" unicode="&#x21a;" horiz-adv-x="489" 
d="M298 606v-606h-107v606h-174v94h455v-94h-174zM156 -235l36 178h96l-49 -178h-83z" />
    <glyph glyph-name="uni021B" unicode="&#x21b;" horiz-adv-x="354" 
d="M189 417v-220v-19.5t1 -20.5q2 -36 16 -56t48 -20q17 0 31 4t26 10l30 -81q-20 -11 -47.5 -17.5t-53.5 -6.5q-55 0 -89.5 23.5t-49.5 62.5q-8 21 -11.5 46.5t-3.5 53.5v241h-66v89h66l5 119h98v-119h139v-89h-139zM100 -235l36 178h96l-49 -178h-83z" />
    <glyph glyph-name="circumflex" unicode="&#x2c6;" horiz-adv-x="360" 
d="M232 778l103 -168l-60 -39l-96 135l-95 -135l-61 39l105 168h104z" />
    <glyph glyph-name="caron" unicode="&#x2c7;" horiz-adv-x="360" 
d="M126 571l-103 168l62 38l96 -135l95 135l59 -38l-105 -168h-104z" />
    <glyph glyph-name="uni02C9" unicode="&#x2c9;" horiz-adv-x="360" 
d="M26 608v77h308v-77h-308z" />
    <glyph glyph-name="breve" unicode="&#x2d8;" horiz-adv-x="360" 
d="M328 735v-18q0 -31 -11.5 -58t-31.5 -47t-47 -31.5t-58 -11.5t-58 11.5t-47 31.5t-31.5 47t-11.5 58v18h74v-19q0 -32 21 -54t53 -22t54 22t22 54v19h72z" />
    <glyph glyph-name="dotaccent" unicode="&#x2d9;" horiz-adv-x="360" 
d="M129 598v107h103v-107h-103z" />
    <glyph glyph-name="ring" unicode="&#x2da;" horiz-adv-x="360" 
d="M82 678q0 41 28.5 69.5t69.5 28.5t69.5 -28.5t28.5 -69.5t-28.5 -69.5t-69.5 -28.5t-69.5 28.5t-28.5 69.5zM136 678q0 -18 13 -31t31 -13t31 13t13 31t-13 31t-31 13t-31 -13t-13 -31z" />
    <glyph glyph-name="ogonek" unicode="&#x2db;" horiz-adv-x="360" 
d="M246 11v-11q-54 -15 -81 -46t-27 -61q0 -20 11 -31.5t33 -11.5q23 0 45 14l32 -57q-17 -15 -42.5 -23t-51.5 -8q-23 0 -44 6.5t-37.5 19.5t-26 32t-9.5 43q0 46 29.5 80t84.5 54h84z" />
    <glyph glyph-name="tilde" unicode="&#x2dc;" horiz-adv-x="360" 
d="M8 598q-2 5 -3 11.5t-1 14.5q0 45 29 71t74 26q26 0 46.5 -9.5t38 -21t32.5 -21t30 -9.5q13 0 21.5 7.5t9.5 21.5v4.5t-1 4.5l69 7q2 -5 3 -11.5t1 -14.5q0 -45 -29 -71t-74 -26q-26 0 -46.5 9.5t-38 21t-32.5 21t-30 9.5q-13 0 -21.5 -7.5t-9.5 -21.5v-4.5t1 -4.5z" />
    <glyph glyph-name="hungarumlaut" unicode="&#x2dd;" horiz-adv-x="360" 
d="M93 577l-62 46l130 180l74 -58zM262 568l-63 47l127 173l73 -57z" />
    <glyph glyph-name="Delta" unicode="&#x394;" 
d="M4 0l222 572h100l219 -572h-541zM273 429h-2l-125 -339h250z" />
    <glyph glyph-name="Omega" unicode="&#x3a9;" horiz-adv-x="794" 
d="M200 92q-78 55 -114.5 130t-36.5 153q0 67 24 128.5t69 107.5t109.5 73.5t145.5 27.5t145.5 -27.5t109.5 -73.5t69 -107.5t24 -128.5q0 -78 -36.5 -153t-114.5 -130h181v-92h-323v101q44 15 77.5 43.5t56 65t34 78t11.5 83.5q0 49 -14.5 93t-43.5 78t-73 54t-103 20
t-103 -20t-73 -54t-43.5 -78t-14.5 -93q0 -42 11.5 -83.5t34 -78t56 -65t77.5 -43.5v-101h-323v92h181z" />
    <glyph glyph-name="mu" unicode="&#x3bc;" 
d="M404 0l-3 80q-29 -45 -72 -68.5t-92 -23.5q-26 0 -47 5t-38 13v-256h-104v756h103v-254q0 -35 3.5 -70.5t20.5 -61.5q11 -18 31.5 -28.5t51.5 -10.5q41 0 78.5 25t62.5 65v335h103v-506h-98z" />
    <glyph glyph-name="pi" unicode="&#x3c0;" 
d="M447 417v-239v-17t1 -16q2 -34 12.5 -51.5t36.5 -22.5l-42 -88q-51 13 -77.5 51t-31.5 97q-1 8 -1.5 18t-0.5 20v248h-155v-352q0 -32 -6 -65h-105q5 20 6.5 38.5t1.5 34.5v344h-59v89h513v-89h-93z" />
    <glyph glyph-name="endash" unicode="&#x2013;" horiz-adv-x="600" 
d="M50 265v92h500v-92h-500z" />
    <glyph glyph-name="emdash" unicode="&#x2014;" horiz-adv-x="900" 
d="M50 265v92h800v-92h-800z" />
    <glyph glyph-name="quoteleft" unicode="&#x2018;" horiz-adv-x="281" 
d="M171 444h-114l68 256h98z" />
    <glyph glyph-name="quoteright" unicode="&#x2019;" horiz-adv-x="281" 
d="M109 700h114l-68 -256h-98z" />
    <glyph glyph-name="quotesinglbase" unicode="&#x201a;" horiz-adv-x="281" 
d="M109 124h114l-68 -256h-98z" />
    <glyph glyph-name="quotedblleft" unicode="&#x201c;" horiz-adv-x="532" 
d="M191 444h-114l68 256h98zM403 444h-114l68 256h98z" />
    <glyph glyph-name="quotedblright" unicode="&#x201d;" horiz-adv-x="532" 
d="M129 700h114l-68 -256h-98zM341 700h114l-68 -256h-98z" />
    <glyph glyph-name="quotedblbase" unicode="&#x201e;" horiz-adv-x="532" 
d="M129 124h114l-68 -256h-98zM341 124h114l-68 -256h-98z" />
    <glyph glyph-name="dagger" unicode="&#x2020;" horiz-adv-x="415" 
d="M168 299l3 162l-67 -3h-37v75h37l67 -3l-3 122v48h79v-48l-3 -122l67 3h37v-75h-37l-67 3l3 -162v-161h-79v161z" />
    <glyph glyph-name="daggerdbl" unicode="&#x2021;" horiz-adv-x="415" 
d="M104 425l67 -3l-1 22v46q0 11 0.5 20t0.5 20l-104 -2v74l104 -3l-3 101h79l-3 -101l104 3v-74l-104 2q0 -11 0.5 -20t0.5 -20v-46l-1 -22l67 3h37v-75l-104 2l3 -71v-143h-79v143l3 71l-104 -2v75h37z" />
    <glyph glyph-name="bullet" unicode="&#x2022;" horiz-adv-x="328" 
d="M35 289q0 27 10 50.5t27.5 41t41 27.5t50.5 10t50.5 -10t41 -27.5t27.5 -41t10 -50.5t-10 -50.5t-27.5 -41t-41 -27.5t-50.5 -10t-50.5 10t-41 27.5t-27.5 41t-10 50.5z" />
    <glyph glyph-name="ellipsis" unicode="&#x2026;" horiz-adv-x="750" 
d="M316 0v124h117v-124h-117zM68 0v124h117v-124h-117zM566 0v124h117v-124h-117z" />
    <glyph glyph-name="perthousand" unicode="&#x2030;" horiz-adv-x="1239" 
d="M219 706q34 0 64 -12.5t52 -34.5t35 -51.5t13 -63.5t-13 -63.5t-35 -51.5t-52 -34.5t-64 -12.5t-64 12.5t-52 34.5t-35 51.5t-13 63.5t13 63.5t35 51.5t52 34.5t64 12.5zM219 628q-35 0 -57.5 -23.5t-22.5 -60.5t22.5 -60.5t57.5 -23.5t57.5 23.5t22.5 60.5t-22.5 60.5
t-57.5 23.5zM705 670l-497 -683l-59 43l498 683zM632 318q34 0 64 -12.5t52 -34.5t35 -51.5t13 -63.5t-13 -63.5t-35 -51.5t-52 -34.5t-64 -12.5t-64 12.5t-52 34.5t-35 51.5t-13 63.5t13 63.5t35 51.5t52 34.5t64 12.5zM632 240q-35 0 -57.5 -23.5t-22.5 -60.5t22.5 -60.5
t57.5 -23.5t57.5 23.5t22.5 60.5t-22.5 60.5t-57.5 23.5zM1020 318q34 0 64 -12.5t52 -34.5t35 -51.5t13 -63.5t-13 -63.5t-35 -51.5t-52 -34.5t-64 -12.5t-64 12.5t-52 34.5t-35 51.5t-13 63.5t13 63.5t35 51.5t52 34.5t64 12.5zM1020 240q-35 0 -57.5 -23.5t-22.5 -60.5
t22.5 -60.5t57.5 -23.5t57.5 23.5t22.5 60.5t-22.5 60.5t-57.5 23.5z" />
    <glyph glyph-name="guilsinglleft" unicode="&#x2039;" horiz-adv-x="316" 
d="M206 485l52 -92l-127 -122l127 -121l-52 -92l-149 155v118z" />
    <glyph glyph-name="guilsinglright" unicode="&#x203a;" horiz-adv-x="316" 
d="M258 330v-118l-149 -155l-52 93l127 120l-127 122l52 92z" />
    <glyph glyph-name="fraction" unicode="&#x2044;" horiz-adv-x="136" 
d="M346 670l-497 -683l-59 43l497 683z" />
    <glyph glyph-name="Euro" unicode="&#x20ac;" horiz-adv-x="650" 
d="M11 450h89q17 52 48 94t73 71.5t93.5 45t108.5 15.5q51 0 101 -14t92 -40l-47 -81q-29 20 -68 31.5t-77 11.5q-78 0 -132.5 -35.5t-81.5 -98.5h264v-79h-285q-1 -10 -1.5 -19.5t-0.5 -19.5v-19.5t2 -18.5h285v-79h-265q27 -65 83 -99.5t132 -34.5q39 0 80 12t74 36
l55 -76q-44 -31 -99 -48t-112 -17t-108.5 15.5t-93.5 44.5t-73.5 71t-47.5 96h-88v79h73q-1 9 -1.5 18.5t-0.5 19.5t0.5 19.5t1.5 19.5h-73v79z" />
    <glyph glyph-name="trademark" unicode="&#x2122;" horiz-adv-x="980" 
d="M255 629v-340h-81v340h-98v71h277v-71h-98zM694 289h-68l-126 316v-316h-81v411h126l115 -299l118 299h126v-411h-81v316z" />
    <glyph glyph-name="uni2126" unicode="&#x2126;" horiz-adv-x="794" 
d="M200 92q-78 55 -114.5 130t-36.5 153q0 67 24 128.5t69 107.5t109.5 73.5t145.5 27.5t145.5 -27.5t109.5 -73.5t69 -107.5t24 -128.5q0 -78 -36.5 -153t-114.5 -130h181v-92h-323v101q44 15 77.5 43.5t56 65t34 78t11.5 83.5q0 49 -14.5 93t-43.5 78t-73 54t-103 20
t-103 -20t-73 -54t-43.5 -78t-14.5 -93q0 -42 11.5 -83.5t34 -78t56 -65t77.5 -43.5v-101h-323v92h181z" />
    <glyph glyph-name="partialdiff" unicode="&#x2202;" 
d="M66 781q106 -44 193.5 -97t150 -117.5t96.5 -143t34 -173.5q0 -55 -18.5 -102.5t-53 -83t-84 -56t-112.5 -20.5q-57 0 -104.5 22t-81.5 59t-53 85t-19 101q0 51 19 97t52 80t79 54t100 20q22 0 42.5 -3.5t37.5 -9.5q-55 66 -136 113.5t-178 88.5zM408 392
q-26 13 -50 18.5t-50 5.5q-41 0 -75.5 -9.5t-60 -29.5t-40 -50t-14.5 -70q0 -35 12 -67t33 -56.5t50.5 -39t65.5 -14.5q37 0 66 13.5t49 36t31 52t11 62.5q0 81 -28 148z" />
    <glyph glyph-name="uni2206" unicode="&#x2206;" horiz-adv-x="633" 
d="M1 0l271 700h92l268 -700h-631zM314 533h-1l-161 -439h322z" />
    <glyph glyph-name="product" unicode="&#x220f;" 
d="M456 478v-478h-107v478h-148v-478h-107v478h-90v94h542v-94h-90z" />
    <glyph glyph-name="summation" unicode="&#x2211;" 
d="M190 94h345v-94h-518v56l250 306l-239 281v57h482v-94h-313l205 -241z" />
    <glyph glyph-name="minus" unicode="&#x2212;" 
d="M500 355v-88h-451v88h451z" />
    <glyph glyph-name="uni2215" unicode="&#x2215;" horiz-adv-x="373" 
d="M84 -55l-84 32l291 786l84 -32z" />
    <glyph glyph-name="uni2219" unicode="&#x2219;" 
d="M216 250v124h117v-124h-117z" />
    <glyph glyph-name="radical" unicode="&#x221a;" 
d="M313 0h-104l-125 417h-85v89h172l93 -360h2l179 604h110z" />
    <glyph glyph-name="infinity" unicode="&#x221e;" horiz-adv-x="778" 
d="M740 247q0 -35 -13 -65t-36 -53t-54 -36t-66 -13q-48 0 -90 27t-93 81q-52 -54 -93 -81t-88 -27q-36 0 -66.5 13.5t-53.5 36.5t-36 53.5t-13 65.5t13 65.5t36 53.5t54 36t66 13q47 0 89.5 -27.5t93.5 -80.5q51 54 92 81t89 27q36 0 66.5 -13.5t53.5 -36.5t36 -54t13 -66z
M568 167q16 0 29.5 6.5t23 18t15 26t5.5 30.5q0 32 -20.5 57t-52.5 25q-26 0 -57 -24t-63 -58q32 -34 63 -57.5t57 -23.5zM210 330q-16 0 -29.5 -7t-23 -18t-15 -25.5t-5.5 -30.5q0 -32 20.5 -57t52.5 -25q26 0 57 24t63 58q-32 34 -63 57.5t-57 23.5z" />
    <glyph glyph-name="integral" unicode="&#x222b;" 
d="M469 654q-30 15 -64 15q-41 0 -57 -17q-12 -12 -14.5 -34t-4.5 -55l-26 -598q-4 -101 -46 -146q-20 -22 -46.5 -31t-63.5 -9q-23 0 -47.5 7t-47.5 17l28 84q15 -8 27 -12t28 -4q20 0 29.5 4.5t17.5 13.5q11 12 14 34.5t5 54.5l25 598q4 102 45 145q20 22 49.5 31.5
t69.5 9.5q27 0 55.5 -7t51.5 -17z" />
    <glyph glyph-name="approxequal" unicode="&#x2248;" 
d="M501 411q-20 -42 -55 -63t-82 -21q-27 0 -50 7.5t-44 16.5t-42 16.5t-43 7.5q-23 0 -41.5 -8.5t-32.5 -31.5l-63 44q20 42 55.5 63.5t81.5 21.5q27 0 50 -7.5t44.5 -16.5t42 -16.5t42.5 -7.5q23 0 42 8t33 31zM501 244q-20 -42 -55 -63.5t-82 -21.5q-27 0 -50 7.5
t-44 16.5t-42 16.5t-43 7.5q-23 0 -41.5 -8.5t-32.5 -31.5l-63 44q20 43 55.5 64t81.5 21q27 0 50 -7.5t44.5 -16.5t42 -16.5t42.5 -7.5q23 0 42 8.5t33 31.5z" />
    <glyph glyph-name="notequal" unicode="&#x2260;" 
d="M405 587l68 -47l-341 -504l-67 47zM500 439v-88h-451v88h451zM500 272v-88h-451v88h451z" />
    <glyph glyph-name="lessequal" unicode="&#x2264;" 
d="M21 426l507 203v-88l-391 -156l391 -156v-88l-507 203v82zM528 86v-86h-507v86h507z" />
    <glyph glyph-name="greaterequal" unicode="&#x2265;" 
d="M528 344l-507 -203v88l391 156l-391 156v88l507 -203v-82zM528 86v-86h-507v86h507z" />
    <glyph glyph-name="lozenge" unicode="&#x25ca;" 
d="M229 700h93l196 -350l-196 -350h-93l-196 350zM275 608l-144 -258l144 -258l145 258z" />
    <glyph glyph-name="uniFB01" unicode="&#xfb01;" horiz-adv-x="605" 
d="M330 661q-12 4 -24.5 6t-27.5 2q-20 0 -32.5 -4t-21.5 -12q-15 -14 -19 -37t-4 -54v-56h135v-89h-135v-417h-103v417h-57v89h57v65q0 41 8 74.5t25 58.5q20 28 52.5 43t84.5 15q20 0 39.5 -3.5t38.5 -9.5zM422 0v506h103v-506h-103zM422 598v107h103v-107h-103z" />
    <glyph glyph-name="uniFB02" unicode="&#xfb02;" horiz-adv-x="606" 
d="M330 661q-12 4 -24.5 6t-27.5 2q-20 0 -32.5 -4t-21.5 -12q-15 -14 -19 -37t-4 -54v-56h135v-89h-135v-417h-103v417h-57v89h57v65q0 41 8 74.5t25 58.5q20 28 52.5 43t84.5 15q20 0 39.5 -3.5t38.5 -9.5zM525 0h-103v750h103v-750z" />
    </font>
</defs>
</svg>
